<svg width="268" height="268" viewBox="0 0 268 268" fill="none" xmlns="http://www.w3.org/2000/svg">
<rect x="5" y="5" width="258" height="258" fill="white" stroke="black" stroke-width="10"/>
<path d="M28.7879 22H22V28.7879H28.7879V22Z" fill="black"/>
<path d="M35.5758 22H28.7879V28.7879H35.5758V22Z" fill="black"/>
<path d="M42.3636 22H35.5758V28.7879H42.3636V22Z" fill="black"/>
<path d="M49.1515 22H42.3636V28.7879H49.1515V22Z" fill="black"/>
<path d="M55.9394 22H49.1515V28.7879H55.9394V22Z" fill="black"/>
<path d="M62.7273 22H55.9394V28.7879H62.7273V22Z" fill="black"/>
<path d="M69.5152 22H62.7273V28.7879H69.5152V22Z" fill="black"/>
<path d="M83.0909 22H76.303V28.7879H83.0909V22Z" fill="black"/>
<path d="M89.8788 22H83.0909V28.7879H89.8788V22Z" fill="black"/>
<path d="M123.818 22H117.03V28.7879H123.818V22Z" fill="black"/>
<path d="M137.394 22H130.606V28.7879H137.394V22Z" fill="black"/>
<path d="M157.758 22H150.97V28.7879H157.758V22Z" fill="black"/>
<path d="M164.545 22H157.758V28.7879H164.545V22Z" fill="black"/>
<path d="M171.333 22H164.545V28.7879H171.333V22Z" fill="black"/>
<path d="M178.121 22H171.333V28.7879H178.121V22Z" fill="black"/>
<path d="M184.909 22H178.121V28.7879H184.909V22Z" fill="black"/>
<path d="M191.697 22H184.909V28.7879H191.697V22Z" fill="black"/>
<path d="M205.273 22H198.485V28.7879H205.273V22Z" fill="black"/>
<path d="M212.061 22H205.273V28.7879H212.061V22Z" fill="black"/>
<path d="M218.848 22H212.061V28.7879H218.848V22Z" fill="black"/>
<path d="M225.636 22H218.848V28.7879H225.636V22Z" fill="black"/>
<path d="M232.424 22H225.636V28.7879H232.424V22Z" fill="black"/>
<path d="M239.212 22H232.424V28.7879H239.212V22Z" fill="black"/>
<path d="M246 22H239.212V28.7879H246V22Z" fill="black"/>
<path d="M28.7879 28.7879H22V35.5758H28.7879V28.7879Z" fill="black"/>
<path d="M69.5152 28.7879H62.7273V35.5758H69.5152V28.7879Z" fill="black"/>
<path d="M89.8788 28.7879H83.0909V35.5758H89.8788V28.7879Z" fill="black"/>
<path d="M110.242 28.7879H103.455V35.5758H110.242V28.7879Z" fill="black"/>
<path d="M117.03 28.7879H110.242V35.5758H117.03V28.7879Z" fill="black"/>
<path d="M130.606 28.7879H123.818V35.5758H130.606V28.7879Z" fill="black"/>
<path d="M157.758 28.7879H150.97V35.5758H157.758V28.7879Z" fill="black"/>
<path d="M164.545 28.7879H157.758V35.5758H164.545V28.7879Z" fill="black"/>
<path d="M205.273 28.7879H198.485V35.5758H205.273V28.7879Z" fill="black"/>
<path d="M246 28.7879H239.212V35.5758H246V28.7879Z" fill="black"/>
<path d="M28.7879 35.5758H22V42.3636H28.7879V35.5758Z" fill="black"/>
<path d="M42.3636 35.5758H35.5758V42.3636H42.3636V35.5758Z" fill="black"/>
<path d="M49.1515 35.5758H42.3636V42.3636H49.1515V35.5758Z" fill="black"/>
<path d="M55.9394 35.5758H49.1515V42.3636H55.9394V35.5758Z" fill="black"/>
<path d="M69.5152 35.5758H62.7273V42.3636H69.5152V35.5758Z" fill="black"/>
<path d="M83.0909 35.5758H76.303V42.3636H83.0909V35.5758Z" fill="black"/>
<path d="M89.8788 35.5758H83.0909V42.3636H89.8788V35.5758Z" fill="black"/>
<path d="M96.6667 35.5758H89.8788V42.3636H96.6667V35.5758Z" fill="black"/>
<path d="M103.455 35.5758H96.6667V42.3636H103.455V35.5758Z" fill="black"/>
<path d="M123.818 35.5758H117.03V42.3636H123.818V35.5758Z" fill="black"/>
<path d="M130.606 35.5758H123.818V42.3636H130.606V35.5758Z" fill="black"/>
<path d="M137.394 35.5758H130.606V42.3636H137.394V35.5758Z" fill="black"/>
<path d="M144.182 35.5758H137.394V42.3636H144.182V35.5758Z" fill="black"/>
<path d="M157.758 35.5758H150.97V42.3636H157.758V35.5758Z" fill="black"/>
<path d="M164.545 35.5758H157.758V42.3636H164.545V35.5758Z" fill="black"/>
<path d="M178.121 35.5758H171.333V42.3636H178.121V35.5758Z" fill="black"/>
<path d="M191.697 35.5758H184.909V42.3636H191.697V35.5758Z" fill="black"/>
<path d="M205.273 35.5758H198.485V42.3636H205.273V35.5758Z" fill="black"/>
<path d="M218.848 35.5758H212.061V42.3636H218.848V35.5758Z" fill="black"/>
<path d="M225.636 35.5758H218.848V42.3636H225.636V35.5758Z" fill="black"/>
<path d="M232.424 35.5758H225.636V42.3636H232.424V35.5758Z" fill="black"/>
<path d="M246 35.5758H239.212V42.3636H246V35.5758Z" fill="black"/>
<path d="M28.7879 42.3636H22V49.1515H28.7879V42.3636Z" fill="black"/>
<path d="M42.3636 42.3636H35.5758V49.1515H42.3636V42.3636Z" fill="black"/>
<path d="M49.1515 42.3636H42.3636V49.1515H49.1515V42.3636Z" fill="black"/>
<path d="M55.9394 42.3636H49.1515V49.1515H55.9394V42.3636Z" fill="black"/>
<path d="M69.5152 42.3636H62.7273V49.1515H69.5152V42.3636Z" fill="black"/>
<path d="M83.0909 42.3636H76.303V49.1515H83.0909V42.3636Z" fill="black"/>
<path d="M96.6667 42.3636H89.8788V49.1515H96.6667V42.3636Z" fill="black"/>
<path d="M103.455 42.3636H96.6667V49.1515H103.455V42.3636Z" fill="black"/>
<path d="M110.242 42.3636H103.455V49.1515H110.242V42.3636Z" fill="black"/>
<path d="M117.03 42.3636H110.242V49.1515H117.03V42.3636Z" fill="black"/>
<path d="M123.818 42.3636H117.03V49.1515H123.818V42.3636Z" fill="black"/>
<path d="M130.606 42.3636H123.818V49.1515H130.606V42.3636Z" fill="black"/>
<path d="M178.121 42.3636H171.333V49.1515H178.121V42.3636Z" fill="black"/>
<path d="M184.909 42.3636H178.121V49.1515H184.909V42.3636Z" fill="black"/>
<path d="M205.273 42.3636H198.485V49.1515H205.273V42.3636Z" fill="black"/>
<path d="M218.848 42.3636H212.061V49.1515H218.848V42.3636Z" fill="black"/>
<path d="M225.636 42.3636H218.848V49.1515H225.636V42.3636Z" fill="black"/>
<path d="M232.424 42.3636H225.636V49.1515H232.424V42.3636Z" fill="black"/>
<path d="M246 42.3636H239.212V49.1515H246V42.3636Z" fill="black"/>
<path d="M28.7879 49.1515H22V55.9394H28.7879V49.1515Z" fill="black"/>
<path d="M42.3636 49.1515H35.5758V55.9394H42.3636V49.1515Z" fill="black"/>
<path d="M49.1515 49.1515H42.3636V55.9394H49.1515V49.1515Z" fill="black"/>
<path d="M55.9394 49.1515H49.1515V55.9394H55.9394V49.1515Z" fill="black"/>
<path d="M69.5152 49.1515H62.7273V55.9394H69.5152V49.1515Z" fill="black"/>
<path d="M83.0909 49.1515H76.303V55.9394H83.0909V49.1515Z" fill="black"/>
<path d="M96.6667 49.1515H89.8788V55.9394H96.6667V49.1515Z" fill="black"/>
<path d="M103.455 49.1515H96.6667V55.9394H103.455V49.1515Z" fill="black"/>
<path d="M137.394 49.1515H130.606V55.9394H137.394V49.1515Z" fill="black"/>
<path d="M157.758 49.1515H150.97V55.9394H157.758V49.1515Z" fill="black"/>
<path d="M184.909 49.1515H178.121V55.9394H184.909V49.1515Z" fill="black"/>
<path d="M191.697 49.1515H184.909V55.9394H191.697V49.1515Z" fill="black"/>
<path d="M205.273 49.1515H198.485V55.9394H205.273V49.1515Z" fill="black"/>
<path d="M218.848 49.1515H212.061V55.9394H218.848V49.1515Z" fill="black"/>
<path d="M225.636 49.1515H218.848V55.9394H225.636V49.1515Z" fill="black"/>
<path d="M232.424 49.1515H225.636V55.9394H232.424V49.1515Z" fill="black"/>
<path d="M246 49.1515H239.212V55.9394H246V49.1515Z" fill="black"/>
<path d="M28.7879 55.9394H22V62.7273H28.7879V55.9394Z" fill="black"/>
<path d="M69.5152 55.9394H62.7273V62.7273H69.5152V55.9394Z" fill="black"/>
<path d="M83.0909 55.9394H76.303V62.7273H83.0909V55.9394Z" fill="black"/>
<path d="M103.455 55.9394H96.6667V62.7273H103.455V55.9394Z" fill="black"/>
<path d="M117.03 55.9394H110.242V62.7273H117.03V55.9394Z" fill="black"/>
<path d="M150.97 55.9394H144.182V62.7273H150.97L150.97 55.9394Z" fill="black"/>
<path d="M157.758 55.9394H150.97L150.97 62.7273H157.758V55.9394Z" fill="black"/>
<path d="M171.333 55.9394H164.545V62.7273H171.333V55.9394Z" fill="black"/>
<path d="M178.121 55.9394H171.333V62.7273H178.121V55.9394Z" fill="black"/>
<path d="M184.909 55.9394H178.121V62.7273H184.909V55.9394Z" fill="black"/>
<path d="M191.697 55.9394H184.909V62.7273H191.697V55.9394Z" fill="black"/>
<path d="M205.273 55.9394H198.485V62.7273H205.273V55.9394Z" fill="black"/>
<path d="M246 55.9394H239.212V62.7273H246V55.9394Z" fill="black"/>
<path d="M28.7879 62.7273H22V69.5152H28.7879V62.7273Z" fill="black"/>
<path d="M35.5758 62.7273H28.7879V69.5152H35.5758V62.7273Z" fill="black"/>
<path d="M42.3636 62.7273H35.5758V69.5152H42.3636V62.7273Z" fill="black"/>
<path d="M49.1515 62.7273H42.3636V69.5152H49.1515V62.7273Z" fill="black"/>
<path d="M55.9394 62.7273H49.1515V69.5152H55.9394V62.7273Z" fill="black"/>
<path d="M62.7273 62.7273H55.9394V69.5152H62.7273V62.7273Z" fill="black"/>
<path d="M69.5152 62.7273H62.7273V69.5152H69.5152V62.7273Z" fill="black"/>
<path d="M83.0909 62.7273H76.303V69.5152H83.0909V62.7273Z" fill="black"/>
<path d="M96.6667 62.7273H89.8788V69.5152H96.6667V62.7273Z" fill="black"/>
<path d="M110.242 62.7273H103.455V69.5152H110.242V62.7273Z" fill="black"/>
<path d="M123.818 62.7273H117.03V69.5152H123.818V62.7273Z" fill="black"/>
<path d="M137.394 62.7273H130.606V69.5152H137.394V62.7273Z" fill="black"/>
<path d="M150.97 62.7273H144.182V69.5152H150.97V62.7273Z" fill="black"/>
<path d="M164.545 62.7273H157.758V69.5152H164.545V62.7273Z" fill="black"/>
<path d="M178.121 62.7273H171.333V69.5152H178.121V62.7273Z" fill="black"/>
<path d="M191.697 62.7273H184.909V69.5152H191.697V62.7273Z" fill="black"/>
<path d="M205.273 62.7273H198.485V69.5152H205.273V62.7273Z" fill="black"/>
<path d="M212.061 62.7273H205.273V69.5152H212.061V62.7273Z" fill="black"/>
<path d="M218.848 62.7273H212.061V69.5152H218.848V62.7273Z" fill="black"/>
<path d="M225.636 62.7273H218.848V69.5152H225.636V62.7273Z" fill="black"/>
<path d="M232.424 62.7273H225.636V69.5152H232.424V62.7273Z" fill="black"/>
<path d="M239.212 62.7273H232.424V69.5152H239.212V62.7273Z" fill="black"/>
<path d="M246 62.7273H239.212V69.5152H246V62.7273Z" fill="black"/>
<path d="M137.394 69.5152H130.606V76.303H137.394V69.5152Z" fill="black"/>
<path d="M150.97 69.5152H144.182V76.303H150.97V69.5152Z" fill="black"/>
<path d="M164.545 69.5152H157.758V76.303H164.545V69.5152Z" fill="black"/>
<path d="M184.909 69.5152H178.121V76.303H184.909V69.5152Z" fill="black"/>
<path d="M191.697 69.5152H184.909V76.303H191.697V69.5152Z" fill="black"/>
<path d="M42.3636 76.303H35.5758V83.0909H42.3636V76.303Z" fill="black"/>
<path d="M49.1515 76.303H42.3636V83.0909H49.1515V76.303Z" fill="black"/>
<path d="M55.9394 76.303H49.1515V83.0909H55.9394V76.303Z" fill="black"/>
<path d="M62.7273 76.303H55.9394V83.0909H62.7273V76.303Z" fill="black"/>
<path d="M69.5152 76.303H62.7273V83.0909H69.5152V76.303Z" fill="black"/>
<path d="M76.303 76.303H69.5152V83.0909H76.303V76.303Z" fill="black"/>
<path d="M89.8788 76.303H83.0909V83.0909H89.8788V76.303Z" fill="black"/>
<path d="M96.6667 76.303H89.8788V83.0909H96.6667V76.303Z" fill="black"/>
<path d="M103.455 76.303H96.6667V83.0909H103.455V76.303Z" fill="black"/>
<path d="M110.242 76.303H103.455V83.0909H110.242V76.303Z" fill="black"/>
<path d="M117.03 76.303H110.242V83.0909H117.03V76.303Z" fill="black"/>
<path d="M123.818 76.303H117.03V83.0909H123.818V76.303Z" fill="black"/>
<path d="M137.394 76.303H130.606V83.0909H137.394V76.303Z" fill="black"/>
<path d="M164.545 76.303H157.758V83.0909H164.545V76.303Z" fill="black"/>
<path d="M191.697 76.303H184.909V83.0909H191.697V76.303Z" fill="black"/>
<path d="M198.485 76.303H191.697V83.0909H198.485V76.303Z" fill="black"/>
<path d="M212.061 76.303H205.273V83.0909H212.061V76.303Z" fill="black"/>
<path d="M218.848 76.303H212.061V83.0909H218.848V76.303Z" fill="black"/>
<path d="M225.636 76.303H218.848V83.0909H225.636V76.303Z" fill="black"/>
<path d="M232.424 76.303H225.636V83.0909H232.424V76.303Z" fill="black"/>
<path d="M246 76.303H239.212V83.0909H246V76.303Z" fill="black"/>
<path d="M28.7879 83.0909H22V89.8788H28.7879V83.0909Z" fill="black"/>
<path d="M35.5758 83.0909H28.7879V89.8788H35.5758V83.0909Z" fill="black"/>
<path d="M42.3636 83.0909H35.5758V89.8788H42.3636V83.0909Z" fill="black"/>
<path d="M55.9394 83.0909H49.1515V89.8788H55.9394V83.0909Z" fill="black"/>
<path d="M62.7273 83.0909H55.9394V89.8788H62.7273V83.0909Z" fill="black"/>
<path d="M96.6667 83.0909H89.8788V89.8788H96.6667V83.0909Z" fill="black"/>
<path d="M103.455 83.0909H96.6667V89.8788H103.455V83.0909Z" fill="black"/>
<path d="M130.606 83.0909H123.818V89.8788H130.606V83.0909Z" fill="black"/>
<path d="M137.394 83.0909H130.606V89.8788H137.394V83.0909Z" fill="black"/>
<path d="M144.182 83.0909H137.394V89.8788H144.182V83.0909Z" fill="black"/>
<path d="M150.97 83.0909H144.182V89.8788H150.97V83.0909Z" fill="black"/>
<path d="M157.758 83.0909H150.97V89.8788H157.758V83.0909Z" fill="black"/>
<path d="M184.909 83.0909H178.121V89.8788H184.909V83.0909Z" fill="black"/>
<path d="M191.697 83.0909H184.909V89.8788H191.697V83.0909Z" fill="black"/>
<path d="M205.273 83.0909H198.485V89.8788H205.273V83.0909Z" fill="black"/>
<path d="M218.848 83.0909H212.061V89.8788H218.848V83.0909Z" fill="black"/>
<path d="M239.212 83.0909H232.424V89.8788H239.212V83.0909Z" fill="black"/>
<path d="M35.5758 89.8788H28.7879V96.6667H35.5758V89.8788Z" fill="black"/>
<path d="M55.9394 89.8788H49.1515V96.6667H55.9394V89.8788Z" fill="black"/>
<path d="M69.5152 89.8788H62.7273V96.6667H69.5152V89.8788Z" fill="black"/>
<path d="M83.0909 89.8788H76.303V96.6667H83.0909V89.8788Z" fill="black"/>
<path d="M89.8788 89.8788H83.0909V96.6667H89.8788V89.8788Z" fill="black"/>
<path d="M103.455 89.8788H96.6667V96.6667H103.455V89.8788Z" fill="black"/>
<path d="M110.242 89.8788H103.455V96.6667H110.242V89.8788Z" fill="black"/>
<path d="M117.03 89.8788H110.242V96.6667H117.03V89.8788Z" fill="black"/>
<path d="M123.818 89.8788H117.03V96.6667H123.818V89.8788Z" fill="black"/>
<path d="M144.182 89.8788H137.394V96.6667H144.182V89.8788Z" fill="black"/>
<path d="M150.97 89.8788H144.182V96.6667H150.97V89.8788Z" fill="black"/>
<path d="M157.758 89.8788H150.97V96.6667H157.758V89.8788Z" fill="black"/>
<path d="M191.697 89.8788H184.909V96.6667H191.697V89.8788Z" fill="black"/>
<path d="M198.485 89.8788H191.697V96.6667H198.485V89.8788Z" fill="black"/>
<path d="M212.061 89.8788H205.273V96.6667H212.061V89.8788Z" fill="black"/>
<path d="M218.848 89.8788H212.061V96.6667H218.848V89.8788Z" fill="black"/>
<path d="M239.212 89.8788H232.424V96.6667H239.212V89.8788Z" fill="black"/>
<path d="M246 89.8788H239.212V96.6667H246V89.8788Z" fill="black"/>
<path d="M28.7879 96.6667H22V103.455H28.7879V96.6667Z" fill="black"/>
<path d="M76.303 96.6667H69.5152V103.455H76.303V96.6667Z" fill="black"/>
<path d="M83.0909 96.6667H76.303V103.455H83.0909V96.6667Z" fill="black"/>
<path d="M89.8788 96.6667H83.0909V103.455H89.8788V96.6667Z" fill="black"/>
<path d="M110.242 96.6667H103.455V103.455H110.242V96.6667Z" fill="black"/>
<path d="M117.03 96.6667H110.242V103.455H117.03V96.6667Z" fill="black"/>
<path d="M123.818 96.6667H117.03V103.455H123.818V96.6667Z" fill="black"/>
<path d="M137.394 96.6667H130.606V103.455H137.394V96.6667Z" fill="black"/>
<path d="M144.182 96.6667H137.394V103.455H144.182V96.6667Z" fill="black"/>
<path d="M171.333 96.6667H164.545V103.455H171.333V96.6667Z" fill="black"/>
<path d="M191.697 96.6667H184.909V103.455H191.697V96.6667Z" fill="black"/>
<path d="M212.061 96.6667H205.273V103.455H212.061V96.6667Z" fill="black"/>
<path d="M218.848 96.6667H212.061V103.455H218.848V96.6667Z" fill="black"/>
<path d="M225.636 96.6667H218.848V103.455H225.636V96.6667Z" fill="black"/>
<path d="M232.424 96.6667H225.636V103.455H232.424V96.6667Z" fill="black"/>
<path d="M246 96.6667H239.212V103.455H246V96.6667Z" fill="black"/>
<path d="M69.5152 103.455H62.7273V110.242H69.5152V103.455Z" fill="black"/>
<path d="M103.455 103.455H96.6667V110.242H103.455V103.455Z" fill="black"/>
<path d="M117.03 103.455H110.242V110.242H117.03V103.455Z" fill="black"/>
<path d="M123.818 103.455H117.03V110.242H123.818V103.455Z" fill="black"/>
<path d="M150.97 103.455H144.182V110.242H150.97V103.455Z" fill="black"/>
<path d="M178.121 103.455H171.333V110.242H178.121V103.455Z" fill="black"/>
<path d="M184.909 103.455H178.121V110.242H184.909V103.455Z" fill="black"/>
<path d="M191.697 103.455H184.909V110.242H191.697V103.455Z" fill="black"/>
<path d="M212.061 103.455H205.273V110.242H212.061V103.455Z" fill="black"/>
<path d="M246 103.455H239.212V110.242H246V103.455Z" fill="black"/>
<path d="M28.7879 110.242H22V117.03H28.7879V110.242Z" fill="black"/>
<path d="M35.5758 110.242H28.7879V117.03H35.5758V110.242Z" fill="black"/>
<path d="M42.3636 110.242H35.5758V117.03H42.3636V110.242Z" fill="black"/>
<path d="M83.0909 110.242H76.303V117.03H83.0909V110.242Z" fill="black"/>
<path d="M130.606 110.242H123.818V117.03H130.606V110.242Z" fill="black"/>
<path d="M191.697 110.242H184.909V117.03H191.697V110.242Z" fill="black"/>
<path d="M205.273 110.242H198.485V117.03H205.273V110.242Z" fill="black"/>
<path d="M212.061 110.242H205.273V117.03H212.061V110.242Z" fill="black"/>
<path d="M225.636 110.242H218.848V117.03H225.636V110.242Z" fill="black"/>
<path d="M35.5758 117.03H28.7879V123.818H35.5758V117.03Z" fill="black"/>
<path d="M49.1515 117.03H42.3636V123.818H49.1515V117.03Z" fill="black"/>
<path d="M62.7273 117.03H55.9394V123.818H62.7273V117.03Z" fill="black"/>
<path d="M69.5152 117.03H62.7273V123.818H69.5152V117.03Z" fill="black"/>
<path d="M76.303 117.03H69.5152V123.818H76.303V117.03Z" fill="black"/>
<path d="M83.0909 117.03H76.303V123.818H83.0909V117.03Z" fill="black"/>
<path d="M103.455 117.03H96.6667V123.818H103.455V117.03Z" fill="black"/>
<path d="M117.03 117.03H110.242V123.818H117.03V117.03Z" fill="black"/>
<path d="M130.606 117.03H123.818V123.818H130.606V117.03Z" fill="black"/>
<path d="M144.182 117.03H137.394V123.818H144.182V117.03Z" fill="black"/>
<path d="M150.97 117.03H144.182V123.818H150.97V117.03Z" fill="black"/>
<path d="M157.758 117.03H150.97V123.818H157.758V117.03Z" fill="black"/>
<path d="M178.121 117.03H171.333V123.818H178.121V117.03Z" fill="black"/>
<path d="M184.909 117.03H178.121V123.818H184.909V117.03Z" fill="black"/>
<path d="M191.697 117.03H184.909V123.818H191.697V117.03Z" fill="black"/>
<path d="M198.485 117.03H191.697V123.818H198.485V117.03Z" fill="black"/>
<path d="M239.212 117.03H232.424V123.818H239.212V117.03Z" fill="black"/>
<path d="M246 117.03H239.212V123.818H246V117.03Z" fill="black"/>
<path d="M35.5758 123.818H28.7879V130.606H35.5758V123.818Z" fill="black"/>
<path d="M42.3636 123.818H35.5758V130.606H42.3636V123.818Z" fill="black"/>
<path d="M49.1515 123.818H42.3636V130.606H49.1515V123.818Z" fill="black"/>
<path d="M55.9394 123.818H49.1515V130.606H55.9394V123.818Z" fill="black"/>
<path d="M62.7273 123.818H55.9394V130.606H62.7273V123.818Z" fill="black"/>
<path d="M76.303 123.818H69.5152V130.606H76.303V123.818Z" fill="black"/>
<path d="M83.0909 123.818H76.303V130.606H83.0909V123.818Z" fill="black"/>
<path d="M96.6667 123.818H89.8788V130.606H96.6667V123.818Z" fill="black"/>
<path d="M103.455 123.818H96.6667V130.606H103.455V123.818Z" fill="black"/>
<path d="M110.242 123.818H103.455V130.606H110.242V123.818Z" fill="black"/>
<path d="M117.03 123.818H110.242V130.606H117.03V123.818Z" fill="black"/>
<path d="M150.97 123.818H144.182V130.606H150.97V123.818Z" fill="black"/>
<path d="M164.545 123.818H157.758V130.606H164.545V123.818Z" fill="black"/>
<path d="M171.333 123.818H164.545V130.606H171.333V123.818Z" fill="black"/>
<path d="M178.121 123.818H171.333V130.606H178.121V123.818Z" fill="black"/>
<path d="M184.909 123.818H178.121V130.606H184.909V123.818Z" fill="black"/>
<path d="M191.697 123.818H184.909V130.606H191.697V123.818Z" fill="black"/>
<path d="M205.273 123.818H198.485V130.606H205.273V123.818Z" fill="black"/>
<path d="M225.636 123.818H218.848V130.606H225.636V123.818Z" fill="black"/>
<path d="M28.7879 130.606H22V137.394H28.7879V130.606Z" fill="black"/>
<path d="M42.3636 130.606H35.5758V137.394H42.3636V130.606Z" fill="black"/>
<path d="M49.1515 130.606H42.3636V137.394H49.1515V130.606Z" fill="black"/>
<path d="M62.7273 130.606H55.9394V137.394H62.7273V130.606Z" fill="black"/>
<path d="M69.5152 130.606H62.7273V137.394H69.5152V130.606Z" fill="black"/>
<path d="M83.0909 130.606H76.303V137.394H83.0909V130.606Z" fill="black"/>
<path d="M89.8788 130.606H83.0909V137.394H89.8788V130.606Z" fill="black"/>
<path d="M96.6667 130.606H89.8788V137.394H96.6667V130.606Z" fill="black"/>
<path d="M103.455 130.606H96.6667V137.394H103.455V130.606Z" fill="black"/>
<path d="M117.03 130.606H110.242V137.394H117.03V130.606Z" fill="black"/>
<path d="M130.606 130.606H123.818V137.394H130.606V130.606Z" fill="black"/>
<path d="M144.182 130.606H137.394V137.394H144.182V130.606Z" fill="black"/>
<path d="M150.97 130.606H144.182V137.394H150.97V130.606Z" fill="black"/>
<path d="M164.545 130.606H157.758V137.394H164.545V130.606Z" fill="black"/>
<path d="M178.121 130.606H171.333V137.394H178.121V130.606Z" fill="black"/>
<path d="M198.485 130.606H191.697V137.394H198.485V130.606Z" fill="black"/>
<path d="M212.061 130.606H205.273V137.394H212.061V130.606Z" fill="black"/>
<path d="M225.636 130.606H218.848V137.394H225.636V130.606Z" fill="black"/>
<path d="M239.212 130.606H232.424V137.394H239.212V130.606Z" fill="black"/>
<path d="M28.7879 137.394H22V144.182H28.7879V137.394Z" fill="black"/>
<path d="M35.5758 137.394H28.7879V144.182H35.5758V137.394Z" fill="black"/>
<path d="M42.3636 137.394H35.5758V144.182H42.3636V137.394Z" fill="black"/>
<path d="M83.0909 137.394H76.303V144.182H83.0909V137.394Z" fill="black"/>
<path d="M117.03 137.394H110.242V144.182H117.03V137.394Z" fill="black"/>
<path d="M137.394 137.394H130.606V144.182H137.394V137.394Z" fill="black"/>
<path d="M144.182 137.394H137.394V144.182H144.182V137.394Z" fill="black"/>
<path d="M150.97 137.394H144.182V144.182H150.97V137.394Z" fill="black"/>
<path d="M157.758 137.394H150.97V144.182H157.758V137.394Z" fill="black"/>
<path d="M171.333 137.394H164.545V144.182H171.333V137.394Z" fill="black"/>
<path d="M191.697 137.394H184.909V144.182H191.697V137.394Z" fill="black"/>
<path d="M246 137.394H239.212V144.182H246V137.394Z" fill="black"/>
<path d="M28.7879 144.182H22V150.97H28.7879V144.182Z" fill="black"/>
<path d="M42.3636 144.182H35.5758V150.97H42.3636V144.182Z" fill="black"/>
<path d="M55.9394 144.182H49.1515V150.97H55.9394V144.182Z" fill="black"/>
<path d="M69.5152 144.182H62.7273V150.97H69.5152V144.182Z" fill="black"/>
<path d="M83.0909 144.182H76.303V150.97H83.0909V144.182Z" fill="black"/>
<path d="M89.8788 144.182H83.0909V150.97H89.8788V144.182Z" fill="black"/>
<path d="M96.6667 144.182H89.8788V150.97H96.6667V144.182Z" fill="black"/>
<path d="M110.242 144.182H103.455V150.97H110.242V144.182Z" fill="black"/>
<path d="M144.182 144.182H137.394V150.97H144.182V144.182Z" fill="black"/>
<path d="M157.758 144.182H150.97L150.97 150.97H157.758V144.182Z" fill="black"/>
<path d="M171.333 144.182H164.545V150.97H171.333V144.182Z" fill="black"/>
<path d="M184.909 144.182H178.121V150.97H184.909V144.182Z" fill="black"/>
<path d="M198.485 144.182H191.697V150.97H198.485V144.182Z" fill="black"/>
<path d="M205.273 144.182H198.485V150.97H205.273V144.182Z" fill="black"/>
<path d="M218.848 144.182H212.061V150.97H218.848V144.182Z" fill="black"/>
<path d="M232.424 144.182H225.636V150.97H232.424V144.182Z" fill="black"/>
<path d="M28.7879 150.97H22V157.758H28.7879V150.97Z" fill="black"/>
<path d="M42.3636 150.97H35.5758V157.758H42.3636V150.97Z" fill="black"/>
<path d="M49.1515 150.97H42.3636V157.758H49.1515V150.97Z" fill="black"/>
<path d="M89.8788 150.97H83.0909V157.758H89.8788V150.97Z" fill="black"/>
<path d="M110.242 150.97H103.455V157.758H110.242V150.97Z" fill="black"/>
<path d="M123.818 150.97H117.03V157.758H123.818V150.97Z" fill="black"/>
<path d="M130.606 150.97H123.818V157.758H130.606V150.97Z" fill="black"/>
<path d="M137.394 150.97L130.606 150.97V157.758H137.394V150.97Z" fill="black"/>
<path d="M144.182 150.97H137.394V157.758H144.182V150.97Z" fill="black"/>
<path d="M157.758 150.97H150.97V157.758H157.758V150.97Z" fill="black"/>
<path d="M164.545 150.97H157.758V157.758H164.545V150.97Z" fill="black"/>
<path d="M198.485 150.97H191.697V157.758H198.485V150.97Z" fill="black"/>
<path d="M212.061 150.97H205.273V157.758H212.061V150.97Z" fill="black"/>
<path d="M232.424 150.97H225.636V157.758H232.424V150.97Z" fill="black"/>
<path d="M239.212 150.97L232.424 150.97V157.758H239.212V150.97Z" fill="black"/>
<path d="M246 150.97H239.212V157.758H246V150.97Z" fill="black"/>
<path d="M28.7879 157.758H22V164.545H28.7879V157.758Z" fill="black"/>
<path d="M35.5758 157.758H28.7879V164.545H35.5758V157.758Z" fill="black"/>
<path d="M42.3636 157.758H35.5758V164.545H42.3636V157.758Z" fill="black"/>
<path d="M49.1515 157.758H42.3636V164.545H49.1515V157.758Z" fill="black"/>
<path d="M62.7273 157.758H55.9394V164.545H62.7273V157.758Z" fill="black"/>
<path d="M69.5152 157.758H62.7273V164.545H69.5152V157.758Z" fill="black"/>
<path d="M96.6667 157.758H89.8788V164.545H96.6667V157.758Z" fill="black"/>
<path d="M103.455 157.758H96.6667V164.545H103.455V157.758Z" fill="black"/>
<path d="M117.03 157.758H110.242V164.545H117.03V157.758Z" fill="black"/>
<path d="M130.606 157.758H123.818V164.545H130.606V157.758Z" fill="black"/>
<path d="M144.182 157.758H137.394V164.545H144.182V157.758Z" fill="black"/>
<path d="M150.97 157.758H144.182V164.545H150.97L150.97 157.758Z" fill="black"/>
<path d="M157.758 157.758H150.97L150.97 164.545H157.758V157.758Z" fill="black"/>
<path d="M164.545 157.758H157.758V164.545H164.545V157.758Z" fill="black"/>
<path d="M178.121 157.758H171.333V164.545H178.121V157.758Z" fill="black"/>
<path d="M198.485 157.758H191.697V164.545H198.485V157.758Z" fill="black"/>
<path d="M205.273 157.758H198.485V164.545H205.273V157.758Z" fill="black"/>
<path d="M225.636 157.758H218.848V164.545H225.636V157.758Z" fill="black"/>
<path d="M239.212 157.758H232.424V164.545H239.212V157.758Z" fill="black"/>
<path d="M28.7879 164.545H22V171.333H28.7879V164.545Z" fill="black"/>
<path d="M35.5758 164.545H28.7879V171.333H35.5758V164.545Z" fill="black"/>
<path d="M42.3636 164.545H35.5758V171.333H42.3636V164.545Z" fill="black"/>
<path d="M55.9394 164.545H49.1515V171.333H55.9394V164.545Z" fill="black"/>
<path d="M62.7273 164.545H55.9394V171.333H62.7273V164.545Z" fill="black"/>
<path d="M76.303 164.545H69.5152V171.333H76.303V164.545Z" fill="black"/>
<path d="M96.6667 164.545H89.8788V171.333H96.6667V164.545Z" fill="black"/>
<path d="M103.455 164.545H96.6667V171.333H103.455V164.545Z" fill="black"/>
<path d="M123.818 164.545H117.03V171.333H123.818V164.545Z" fill="black"/>
<path d="M130.606 164.545H123.818V171.333H130.606V164.545Z" fill="black"/>
<path d="M150.97 164.545H144.182V171.333H150.97V164.545Z" fill="black"/>
<path d="M157.758 164.545H150.97V171.333H157.758V164.545Z" fill="black"/>
<path d="M178.121 164.545H171.333V171.333H178.121V164.545Z" fill="black"/>
<path d="M184.909 164.545H178.121V171.333H184.909V164.545Z" fill="black"/>
<path d="M212.061 164.545H205.273V171.333H212.061V164.545Z" fill="black"/>
<path d="M218.848 164.545H212.061V171.333H218.848V164.545Z" fill="black"/>
<path d="M239.212 164.545H232.424V171.333H239.212V164.545Z" fill="black"/>
<path d="M49.1515 171.333H42.3636V178.121H49.1515V171.333Z" fill="black"/>
<path d="M62.7273 171.333H55.9394V178.121H62.7273V171.333Z" fill="black"/>
<path d="M69.5152 171.333H62.7273V178.121H69.5152V171.333Z" fill="black"/>
<path d="M83.0909 171.333H76.303V178.121H83.0909V171.333Z" fill="black"/>
<path d="M96.6667 171.333H89.8788V178.121H96.6667V171.333Z" fill="black"/>
<path d="M103.455 171.333H96.6667V178.121H103.455V171.333Z" fill="black"/>
<path d="M110.242 171.333H103.455V178.121H110.242V171.333Z" fill="black"/>
<path d="M123.818 171.333H117.03V178.121H123.818V171.333Z" fill="black"/>
<path d="M137.394 171.333H130.606V178.121H137.394V171.333Z" fill="black"/>
<path d="M144.182 171.333H137.394V178.121H144.182V171.333Z" fill="black"/>
<path d="M157.758 171.333H150.97L150.97 178.121H157.758V171.333Z" fill="black"/>
<path d="M164.545 171.333H157.758V178.121H164.545V171.333Z" fill="black"/>
<path d="M184.909 171.333H178.121V178.121H184.909V171.333Z" fill="black"/>
<path d="M205.273 171.333H198.485V178.121H205.273V171.333Z" fill="black"/>
<path d="M232.424 171.333H225.636V178.121H232.424V171.333Z" fill="black"/>
<path d="M246 171.333H239.212V178.121H246V171.333Z" fill="black"/>
<path d="M28.7879 178.121H22V184.909H28.7879V178.121Z" fill="black"/>
<path d="M42.3636 178.121H35.5758V184.909H42.3636V178.121Z" fill="black"/>
<path d="M49.1515 178.121H42.3636V184.909H49.1515V178.121Z" fill="black"/>
<path d="M55.9394 178.121H49.1515V184.909H55.9394V178.121Z" fill="black"/>
<path d="M76.303 178.121H69.5152V184.909H76.303V178.121Z" fill="black"/>
<path d="M89.8788 178.121H83.0909V184.909H89.8788V178.121Z" fill="black"/>
<path d="M117.03 178.121H110.242V184.909H117.03V178.121Z" fill="black"/>
<path d="M130.606 178.121H123.818V184.909H130.606V178.121Z" fill="black"/>
<path d="M137.394 178.121H130.606V184.909H137.394V178.121Z" fill="black"/>
<path d="M144.182 178.121H137.394V184.909H144.182V178.121Z" fill="black"/>
<path d="M164.545 178.121H157.758V184.909H164.545V178.121Z" fill="black"/>
<path d="M171.333 178.121H164.545V184.909H171.333V178.121Z" fill="black"/>
<path d="M184.909 178.121H178.121V184.909H184.909V178.121Z" fill="black"/>
<path d="M205.273 178.121H198.485V184.909H205.273V178.121Z" fill="black"/>
<path d="M212.061 178.121H205.273V184.909H212.061V178.121Z" fill="black"/>
<path d="M225.636 178.121H218.848V184.909H225.636V178.121Z" fill="black"/>
<path d="M246 178.121H239.212V184.909H246V178.121Z" fill="black"/>
<path d="M35.5758 184.909H28.7879V191.697H35.5758V184.909Z" fill="black"/>
<path d="M55.9394 184.909H49.1515V191.697H55.9394V184.909Z" fill="black"/>
<path d="M69.5152 184.909H62.7273V191.697H69.5152V184.909Z" fill="black"/>
<path d="M76.303 184.909H69.5152V191.697H76.303V184.909Z" fill="black"/>
<path d="M83.0909 184.909H76.303V191.697H83.0909V184.909Z" fill="black"/>
<path d="M117.03 184.909H110.242V191.697H117.03V184.909Z" fill="black"/>
<path d="M137.394 184.909H130.606V191.697H137.394V184.909Z" fill="black"/>
<path d="M150.97 184.909H144.182V191.697H150.97V184.909Z" fill="black"/>
<path d="M164.545 184.909H157.758V191.697H164.545V184.909Z" fill="black"/>
<path d="M171.333 184.909H164.545V191.697H171.333V184.909Z" fill="black"/>
<path d="M191.697 184.909H184.909V191.697H191.697V184.909Z" fill="black"/>
<path d="M198.485 184.909H191.697V191.697H198.485V184.909Z" fill="black"/>
<path d="M205.273 184.909H198.485V191.697H205.273V184.909Z" fill="black"/>
<path d="M212.061 184.909H205.273V191.697H212.061V184.909Z" fill="black"/>
<path d="M218.848 184.909H212.061V191.697H218.848V184.909Z" fill="black"/>
<path d="M225.636 184.909H218.848V191.697H225.636V184.909Z" fill="black"/>
<path d="M232.424 184.909H225.636V191.697H232.424V184.909Z" fill="black"/>
<path d="M246 184.909H239.212V191.697H246V184.909Z" fill="black"/>
<path d="M96.6667 191.697H89.8788V198.485H96.6667V191.697Z" fill="black"/>
<path d="M110.242 191.697H103.455V198.485H110.242V191.697Z" fill="black"/>
<path d="M123.818 191.697H117.03V198.485H123.818V191.697Z" fill="black"/>
<path d="M130.606 191.697H123.818V198.485H130.606V191.697Z" fill="black"/>
<path d="M137.394 191.697H130.606V198.485H137.394V191.697Z" fill="black"/>
<path d="M157.758 191.697H150.97L150.97 198.485H157.758V191.697Z" fill="black"/>
<path d="M164.545 191.697H157.758V198.485H164.545V191.697Z" fill="black"/>
<path d="M184.909 191.697H178.121V198.485H184.909V191.697Z" fill="black"/>
<path d="M191.697 191.697H184.909V198.485H191.697V191.697Z" fill="black"/>
<path d="M218.848 191.697H212.061V198.485H218.848V191.697Z" fill="black"/>
<path d="M225.636 191.697H218.848V198.485H225.636V191.697Z" fill="black"/>
<path d="M239.212 191.697H232.424V198.485H239.212V191.697Z" fill="black"/>
<path d="M28.7879 198.485H22V205.273H28.7879V198.485Z" fill="black"/>
<path d="M35.5758 198.485H28.7879V205.273H35.5758V198.485Z" fill="black"/>
<path d="M42.3636 198.485H35.5758V205.273H42.3636V198.485Z" fill="black"/>
<path d="M49.1515 198.485H42.3636V205.273H49.1515V198.485Z" fill="black"/>
<path d="M55.9394 198.485H49.1515V205.273H55.9394V198.485Z" fill="black"/>
<path d="M62.7273 198.485H55.9394V205.273H62.7273V198.485Z" fill="black"/>
<path d="M69.5152 198.485H62.7273V205.273H69.5152V198.485Z" fill="black"/>
<path d="M83.0909 198.485H76.303V205.273H83.0909V198.485Z" fill="black"/>
<path d="M89.8788 198.485H83.0909V205.273H89.8788V198.485Z" fill="black"/>
<path d="M117.03 198.485H110.242V205.273H117.03V198.485Z" fill="black"/>
<path d="M123.818 198.485H117.03V205.273H123.818V198.485Z" fill="black"/>
<path d="M130.606 198.485H123.818V205.273H130.606V198.485Z" fill="black"/>
<path d="M144.182 198.485H137.394V205.273H144.182V198.485Z" fill="black"/>
<path d="M150.97 198.485H144.182V205.273H150.97L150.97 198.485Z" fill="black"/>
<path d="M171.333 198.485H164.545V205.273H171.333V198.485Z" fill="black"/>
<path d="M184.909 198.485H178.121V205.273H184.909V198.485Z" fill="black"/>
<path d="M191.697 198.485H184.909V205.273H191.697V198.485Z" fill="black"/>
<path d="M205.273 198.485H198.485V205.273H205.273V198.485Z" fill="black"/>
<path d="M218.848 198.485H212.061V205.273H218.848V198.485Z" fill="black"/>
<path d="M232.424 198.485H225.636V205.273H232.424V198.485Z" fill="black"/>
<path d="M239.212 198.485H232.424V205.273H239.212V198.485Z" fill="black"/>
<path d="M246 198.485H239.212V205.273H246V198.485Z" fill="black"/>
<path d="M28.7879 205.273H22V212.061H28.7879V205.273Z" fill="black"/>
<path d="M69.5152 205.273H62.7273V212.061H69.5152V205.273Z" fill="black"/>
<path d="M83.0909 205.273H76.303V212.061H83.0909V205.273Z" fill="black"/>
<path d="M89.8788 205.273H83.0909V212.061H89.8788V205.273Z" fill="black"/>
<path d="M123.818 205.273H117.03V212.061H123.818V205.273Z" fill="black"/>
<path d="M137.394 205.273H130.606V212.061H137.394V205.273Z" fill="black"/>
<path d="M144.182 205.273H137.394V212.061H144.182V205.273Z" fill="black"/>
<path d="M150.97 205.273H144.182V212.061H150.97V205.273Z" fill="black"/>
<path d="M157.758 205.273H150.97V212.061H157.758V205.273Z" fill="black"/>
<path d="M164.545 205.273H157.758V212.061H164.545V205.273Z" fill="black"/>
<path d="M191.697 205.273H184.909V212.061H191.697V205.273Z" fill="black"/>
<path d="M218.848 205.273H212.061V212.061H218.848V205.273Z" fill="black"/>
<path d="M232.424 205.273H225.636V212.061H232.424V205.273Z" fill="black"/>
<path d="M246 205.273H239.212V212.061H246V205.273Z" fill="black"/>
<path d="M28.7879 212.061H22V218.848H28.7879V212.061Z" fill="black"/>
<path d="M42.3636 212.061H35.5758V218.848H42.3636V212.061Z" fill="black"/>
<path d="M49.1515 212.061H42.3636V218.848H49.1515V212.061Z" fill="black"/>
<path d="M55.9394 212.061H49.1515V218.848H55.9394V212.061Z" fill="black"/>
<path d="M69.5152 212.061H62.7273V218.848H69.5152V212.061Z" fill="black"/>
<path d="M83.0909 212.061H76.303V218.848H83.0909V212.061Z" fill="black"/>
<path d="M96.6667 212.061H89.8788V218.848H96.6667V212.061Z" fill="black"/>
<path d="M103.455 212.061H96.6667V218.848H103.455V212.061Z" fill="black"/>
<path d="M110.242 212.061H103.455V218.848H110.242V212.061Z" fill="black"/>
<path d="M130.606 212.061H123.818V218.848H130.606V212.061Z" fill="black"/>
<path d="M137.394 212.061H130.606V218.848H137.394V212.061Z" fill="black"/>
<path d="M150.97 212.061H144.182V218.848H150.97V212.061Z" fill="black"/>
<path d="M157.758 212.061H150.97V218.848H157.758V212.061Z" fill="black"/>
<path d="M164.545 212.061H157.758V218.848H164.545V212.061Z" fill="black"/>
<path d="M191.697 212.061H184.909V218.848H191.697V212.061Z" fill="black"/>
<path d="M198.485 212.061H191.697V218.848H198.485V212.061Z" fill="black"/>
<path d="M205.273 212.061H198.485V218.848H205.273V212.061Z" fill="black"/>
<path d="M212.061 212.061H205.273V218.848H212.061V212.061Z" fill="black"/>
<path d="M218.848 212.061H212.061V218.848H218.848V212.061Z" fill="black"/>
<path d="M225.636 212.061H218.848V218.848H225.636V212.061Z" fill="black"/>
<path d="M239.212 212.061H232.424V218.848H239.212V212.061Z" fill="black"/>
<path d="M28.7879 218.848H22V225.636H28.7879V218.848Z" fill="black"/>
<path d="M42.3636 218.848H35.5758V225.636H42.3636V218.848Z" fill="black"/>
<path d="M49.1515 218.848H42.3636V225.636H49.1515V218.848Z" fill="black"/>
<path d="M55.9394 218.848H49.1515V225.636H55.9394V218.848Z" fill="black"/>
<path d="M69.5152 218.848H62.7273V225.636H69.5152V218.848Z" fill="black"/>
<path d="M83.0909 218.848H76.303V225.636H83.0909V218.848Z" fill="black"/>
<path d="M89.8788 218.848H83.0909V225.636H89.8788V218.848Z" fill="black"/>
<path d="M103.455 218.848H96.6667V225.636H103.455V218.848Z" fill="black"/>
<path d="M110.242 218.848H103.455V225.636H110.242V218.848Z" fill="black"/>
<path d="M117.03 218.848H110.242V225.636H117.03V218.848Z" fill="black"/>
<path d="M123.818 218.848H117.03V225.636H123.818V218.848Z" fill="black"/>
<path d="M130.606 218.848H123.818V225.636H130.606V218.848Z" fill="black"/>
<path d="M144.182 218.848H137.394V225.636H144.182V218.848Z" fill="black"/>
<path d="M157.758 218.848H150.97L150.97 225.636H157.758V218.848Z" fill="black"/>
<path d="M164.545 218.848H157.758V225.636H164.545V218.848Z" fill="black"/>
<path d="M171.333 218.848H164.545V225.636H171.333V218.848Z" fill="black"/>
<path d="M184.909 218.848H178.121V225.636H184.909V218.848Z" fill="black"/>
<path d="M191.697 218.848H184.909V225.636H191.697V218.848Z" fill="black"/>
<path d="M212.061 218.848H205.273V225.636H212.061V218.848Z" fill="black"/>
<path d="M218.848 218.848H212.061V225.636H218.848V218.848Z" fill="black"/>
<path d="M232.424 218.848H225.636V225.636H232.424V218.848Z" fill="black"/>
<path d="M239.212 218.848H232.424V225.636H239.212V218.848Z" fill="black"/>
<path d="M246 218.848H239.212V225.636H246V218.848Z" fill="black"/>
<path d="M28.7879 225.636H22V232.424H28.7879V225.636Z" fill="black"/>
<path d="M42.3636 225.636H35.5758V232.424H42.3636V225.636Z" fill="black"/>
<path d="M49.1515 225.636H42.3636V232.424H49.1515V225.636Z" fill="black"/>
<path d="M55.9394 225.636H49.1515V232.424H55.9394V225.636Z" fill="black"/>
<path d="M69.5152 225.636H62.7273V232.424H69.5152V225.636Z" fill="black"/>
<path d="M83.0909 225.636H76.303V232.424H83.0909V225.636Z" fill="black"/>
<path d="M89.8788 225.636H83.0909V232.424H89.8788V225.636Z" fill="black"/>
<path d="M96.6667 225.636H89.8788V232.424H96.6667V225.636Z" fill="black"/>
<path d="M103.455 225.636H96.6667V232.424H103.455V225.636Z" fill="black"/>
<path d="M130.606 225.636H123.818V232.424H130.606V225.636Z" fill="black"/>
<path d="M144.182 225.636H137.394V232.424H144.182V225.636Z" fill="black"/>
<path d="M150.97 225.636H144.182V232.424H150.97L150.97 225.636Z" fill="black"/>
<path d="M157.758 225.636H150.97L150.97 232.424H157.758V225.636Z" fill="black"/>
<path d="M184.909 225.636H178.121V232.424H184.909V225.636Z" fill="black"/>
<path d="M198.485 225.636H191.697V232.424H198.485V225.636Z" fill="black"/>
<path d="M205.273 225.636H198.485V232.424H205.273V225.636Z" fill="black"/>
<path d="M212.061 225.636H205.273V232.424H212.061V225.636Z" fill="black"/>
<path d="M225.636 225.636H218.848V232.424H225.636V225.636Z" fill="black"/>
<path d="M239.212 225.636H232.424V232.424H239.212V225.636Z" fill="black"/>
<path d="M28.7879 232.424H22V239.212H28.7879V232.424Z" fill="black"/>
<path d="M69.5152 232.424H62.7273V239.212H69.5152V232.424Z" fill="black"/>
<path d="M96.6667 232.424H89.8788V239.212H96.6667V232.424Z" fill="black"/>
<path d="M103.455 232.424H96.6667V239.212H103.455V232.424Z" fill="black"/>
<path d="M117.03 232.424H110.242V239.212H117.03V232.424Z" fill="black"/>
<path d="M123.818 232.424H117.03V239.212H123.818V232.424Z" fill="black"/>
<path d="M150.97 232.424H144.182V239.212H150.97V232.424Z" fill="black"/>
<path d="M178.121 232.424H171.333V239.212H178.121V232.424Z" fill="black"/>
<path d="M205.273 232.424H198.485V239.212H205.273V232.424Z" fill="black"/>
<path d="M212.061 232.424H205.273V239.212H212.061V232.424Z" fill="black"/>
<path d="M225.636 232.424H218.848V239.212H225.636V232.424Z" fill="black"/>
<path d="M246 232.424H239.212V239.212H246V232.424Z" fill="black"/>
<path d="M28.7879 239.212H22V246H28.7879V239.212Z" fill="black"/>
<path d="M35.5758 239.212H28.7879V246H35.5758V239.212Z" fill="black"/>
<path d="M42.3636 239.212H35.5758V246H42.3636V239.212Z" fill="black"/>
<path d="M49.1515 239.212H42.3636V246H49.1515V239.212Z" fill="black"/>
<path d="M55.9394 239.212H49.1515V246H55.9394V239.212Z" fill="black"/>
<path d="M62.7273 239.212H55.9394V246H62.7273V239.212Z" fill="black"/>
<path d="M69.5152 239.212H62.7273V246H69.5152V239.212Z" fill="black"/>
<path d="M89.8788 239.212H83.0909V246H89.8788V239.212Z" fill="black"/>
<path d="M103.455 239.212H96.6667V246H103.455V239.212Z" fill="black"/>
<path d="M117.03 239.212H110.242V246H117.03V239.212Z" fill="black"/>
<path d="M137.394 239.212H130.606V246H137.394V239.212Z" fill="black"/>
<path d="M144.182 239.212H137.394V246H144.182V239.212Z" fill="black"/>
<path d="M164.545 239.212H157.758V246H164.545V239.212Z" fill="black"/>
<path d="M171.333 239.212H164.545V246H171.333V239.212Z" fill="black"/>
<path d="M198.485 239.212H191.697V246H198.485V239.212Z" fill="black"/>
<path d="M212.061 239.212H205.273V246H212.061V239.212Z" fill="black"/>
<path d="M225.636 239.212H218.848V246H225.636V239.212Z" fill="black"/>
</svg>
