<svg xmlns="http://www.w3.org/2000/svg" version="1.1" xmlns:xlink="http://www.w3.org/1999/xlink" xmlns:svgjs="http://svgjs.dev/svgjs" width="1000" height="1000" viewBox="0 0 1000 1000"><g transform="matrix(1,0,0,1,-0.49999999999994316,-0.49999999999994316)"><svg viewBox="0 0 280 280" data-background-color="#ffffff" preserveAspectRatio="xMidYMid meet" height="1000" width="1000" xmlns="http://www.w3.org/2000/svg" xmlns:xlink="http://www.w3.org/1999/xlink"><g id="tight-bounds" transform="matrix(1,0,0,1,0.13999999999998636,0.13999999999998636)"><svg viewBox="0 0 279.72 279.72" height="279.72" width="279.72"><g><svg viewBox="0 0 279.72 279.72" height="279.72" width="279.72"><g><svg viewBox="0 0 279.72 279.72" height="279.72" width="279.72"><g id="textblocktransform"><svg viewBox="0 0 279.72 279.72" height="279.72" width="279.72" id="textblock"><g><svg viewBox="0 0 279.72 279.72" height="279.72" width="279.72"><g transform="matrix(1,0,0,1,73.92936372216631,74.31372319370834)"><svg viewBox="0 0 131.8612725556674 131.09255361258334" height="131.09255361258334" width="131.8612725556674"><g><svg xmlns="http://www.w3.org/2000/svg" viewBox="20 20.173631984616488 60.018743579525974 59.668848995350714" x="0" y="0" height="131.09255361258334" width="131.8612725556674" class="icon-q$-0" data-fill-palette-color="accent" id="q$-0"><g data-name="Calque 2" fill="#8bd8bc" data-fill-palette-color="accent"><path d="M23.82 23.07A1.82 1.82 0 1 1 22 24.88 1.82 1.82 0 0 1 23.82 23.07Zm0 5.58a3.73 3.73 0 0 0 2-0.56c2.07 1.44 9.08 6.45 10.21 7.14a6.25 6.25 0 0 0 3.19 1.25c0.63 0 2 0.06 4.13 0.06A2.75 2.75 0 0 0 45.8 38a2.76 2.76 0 1 0-2.69-3.32c-1.94 0-3.26 0-3.82-0.06A3.81 3.81 0 0 1 37 33.71c-1-0.63-7.64-5.39-9.9-7A4 4 0 0 0 27.57 25a3.7 3.7 0 0 0-3.7-3.7 3.74 3.74 0 0 0-3.7 3.7A3.6 3.6 0 0 0 23.82 28.64Z" fill="#8bd8bc" data-fill-palette-color="accent"></path><path d="M22.13 44.61a1.82 1.82 0 1 1 1.82 1.82A1.78 1.78 0 0 1 22.13 44.61Zm5.39 0.94H33a2.71 2.71 0 0 0 2.57 1.82 2.76 2.76 0 0 0 0-5.51A2.71 2.71 0 0 0 33 43.67H27.52a3.76 3.76 0 0 0-3.57-2.76 3.7 3.7 0 0 0-3.7 3.7 3.74 3.74 0 0 0 3.7 3.7A3.52 3.52 0 0 0 27.52 45.55Z" fill="#8bd8bc" data-fill-palette-color="accent"></path><path d="M28.33 49.87a1.82 1.82 0 1 1-1.82 1.82A1.82 1.82 0 0 1 28.33 49.87Zm0 5.58a3.7 3.7 0 0 0 3.57-2.76H33a2.72 2.72 0 0 0 2.57 1.82 2.76 2.76 0 0 0 0-5.51A2.71 2.71 0 0 0 33 50.81H31.9a3.76 3.76 0 0 0-3.57-2.76 3.7 3.7 0 0 0 0 7.39Z" fill="#8bd8bc" data-fill-palette-color="accent"></path><path d="M23.7 75.24a1.82 1.82 0 1 1 1.82-1.82A1.78 1.78 0 0 1 23.7 75.24Zm1.06-5.39V63.4c0-2.94 1-3.57 2.69-3.57 2.07 0 4.38 0 5.39 0.06a2.73 2.73 0 0 0 2.63 1.82 2.76 2.76 0 1 0 0-5.51A2.71 2.71 0 0 0 32.9 58c-1.06 0-3.38-0.06-5.39-0.06-4.64 0-4.64 4.07-4.64 5.45v6.39A3.76 3.76 0 0 0 20 73.42a3.7 3.7 0 0 0 3.7 3.7 3.74 3.74 0 0 0 3.7-3.7A3.58 3.58 0 0 0 24.76 69.86Z" fill="#8bd8bc" data-fill-palette-color="accent"></path><path d="M75.06 75.24a1.82 1.82 0 1 1 1.82-1.82A1.82 1.82 0 0 1 75.06 75.24Zm0.81-5.45V63.4c0-1.31 0-5.45-4.57-5.45-2.07 0-4.38 0-5.39 0.06a2.71 2.71 0 0 0-2.57-1.82 2.76 2.76 0 1 0 0 5.51A2.85 2.85 0 0 0 66 59.9c1.06 0 3.38-0.06 5.39-0.06C73 59.83 74 60.4 74 63.4v6.45a3.7 3.7 0 0 0 1 7.26 3.71 3.71 0 0 0 0.82-7.33Z" fill="#8bd8bc" data-fill-palette-color="accent"></path><path d="M72.42 23.69A1.57 1.57 0 1 1 74 25.26 1.59 1.59 0 0 1 72.42 23.69ZM63.59 47.37A2.76 2.76 0 0 0 66 45.86h4.57c4.26 0 4.26-3.76 4.26-5V27a3.46 3.46 0 1 0-4.26-3.38A3.44 3.44 0 0 0 73.05 27v13.9c0 2.63-0.82 3.13-2.38 3.13H66.35a2.75 2.75 0 0 0-5.45 0.56A2.63 2.63 0 0 0 63.59 47.37Z" fill="#8bd8bc" data-fill-palette-color="accent"></path><path d="M76.37 50.13a1.82 1.82 0 1 1-1.82 1.82A1.78 1.78 0 0 1 76.37 50.13Zm-13 4.57A2.71 2.71 0 0 0 66 52.88h6.77a3.76 3.76 0 0 0 3.57 2.76A3.7 3.7 0 1 0 72.74 51H66a2.71 2.71 0 0 0-2.57-1.82 2.78 2.78 0 0 0-2.76 2.76A2.73 2.73 0 0 0 63.4 54.7Z" fill="#8bd8bc" data-fill-palette-color="accent"></path><rect x="40.48" y="39.98" width="18.04" height="23.93" rx="3.95" ry="3.95" fill="#8bd8bc" data-fill-palette-color="accent"></rect><path d="M40.48 24.45a1.82 1.82 0 1 1-1.82 1.82A1.86 1.86 0 0 1 40.48 24.45Zm0 5.58A3.7 3.7 0 0 0 44 27.33h6.26c0.69 0 1.31 0 1.57 0.25s0.31 0.44 0.31 1.25c0 1.13 0 2.63-0.06 3.82a2.76 2.76 0 1 0 3.76 2.57 2.76 2.76 0 0 0-1.94-2.63c0-1.19 0.06-2.63 0.06-3.76a3.32 3.32 0 0 0-0.82-2.57 3.69 3.69 0 0 0-2.88-0.75h-6.2A3.71 3.71 0 1 0 40.48 30Z" fill="#8bd8bc" data-fill-palette-color="accent"></path><path d="M35 76.18a1.82 1.82 0 1 1-1.82-1.82A1.78 1.78 0 0 1 35 76.18ZM45.8 66A2.71 2.71 0 0 0 43.3 67.6h-7c-1.31 0-4.07 0-4.07 3.7v1.25a3.68 3.68 0 0 0 0.88 7.27 3.74 3.74 0 0 0 3.7-3.7 3.7 3.7 0 0 0-2.69-3.57c0-0.37-0.06-0.82-0.06-1.25 0-1.69 0.56-1.82 2.19-1.82h6.83a2.69 2.69 0 0 0 2.63 2 2.78 2.78 0 0 0 2.76-2.76A2.69 2.69 0 0 0 45.8 66Z" fill="#8bd8bc" data-fill-palette-color="accent"></path><path d="M62.71 78a1.82 1.82 0 0 1-1.82-1.82 1.87 1.87 0 0 1 1.82-1.88 1.82 1.82 0 0 1 1.82 1.82A1.87 1.87 0 0 1 62.71 78Zm0.88-5.45V71.29c0-3.7-2.76-3.7-4.07-3.7H55.7A2.67 2.67 0 0 0 53.2 66a2.76 2.76 0 1 0 2.63 3.51h3.7c1.63 0 2.19 0.12 2.19 1.82a8.09 8.09 0 0 1-0.06 1.25 3.7 3.7 0 1 0 4.7 3.57A3.57 3.57 0 0 0 63.59 72.55Z" fill="#8bd8bc" data-fill-palette-color="accent"></path></g></svg></g></svg></g><path d="M30.424 184.445v0l-0.467 0.152c-0.162-0.277-0.453-0.513-0.875-0.706-0.421-0.193-1.035-0.36-1.84-0.5v0l-10.986-1.707-0.13-0.399 8.396-8.832c0.483-0.501 0.764-0.882 0.844-1.145 0.08-0.263 0.092-0.478 0.038-0.647v0l0.496-0.161c0.088 0.316 0.177 0.645 0.267 0.989 0.099 0.348 0.211 0.717 0.337 1.106v0c0.168 0.519 0.352 1.073 0.55 1.661 0.198 0.588 0.395 1.13 0.592 1.625v0l-0.497 0.161c-0.128-0.396-0.286-0.728-0.474-0.997-0.194-0.267-0.433-0.408-0.718-0.423-0.282-0.009-0.613 0.177-0.991 0.558v0l-6.355 6.472-0.196-0.141 7.264 1.107c1.012 0.159 1.754 0.159 2.226-0.002 0.465-0.158 0.729-0.448 0.793-0.87 0.064-0.422-0.002-0.967-0.197-1.636v0l0.467-0.151c0.136 0.465 0.271 0.934 0.403 1.407 0.141 0.478 0.277 0.921 0.41 1.33v0c0.133 0.409 0.249 0.744 0.348 1.006 0.108 0.266 0.206 0.514 0.295 0.743zM17.48 181.448l1.591 0.495-4.671 1.516c-0.564 0.183-0.974 0.37-1.227 0.559-0.256 0.183-0.384 0.429-0.385 0.738-0.009 0.304 0.061 0.73 0.21 1.276v0l-0.477 0.155c-0.085-0.374-0.213-0.834-0.383-1.381-0.168-0.541-0.342-1.087-0.521-1.638v0c-0.2-0.616-0.389-1.189-0.569-1.72-0.181-0.536-0.342-0.965-0.481-1.285v0l0.477-0.155c0.201 0.53 0.394 0.916 0.579 1.157 0.181 0.25 0.429 0.373 0.745 0.372 0.317 0.005 0.758-0.084 1.322-0.268v0l4.837-1.569zM34.421 192.099v0c0.665 1.421 0.927 2.819 0.787 4.194-0.149 1.372-0.687 2.637-1.614 3.794-0.927 1.157-2.253 2.138-3.977 2.944v0c-1.68 0.786-3.291 1.166-4.831 1.141-1.544-0.016-2.919-0.397-4.126-1.142-1.21-0.752-2.142-1.826-2.795-3.222v0c-0.665-1.421-0.926-2.816-0.782-4.186 0.146-1.378 0.686-2.647 1.619-3.807 0.943-1.156 2.267-2.133 3.971-2.93v0c1.68-0.786 3.291-1.166 4.832-1.142 1.546 0.022 2.923 0.406 4.13 1.152 1.204 0.739 2.133 1.807 2.786 3.204zM33.97 192.197v0c-0.457-0.976-1.189-1.665-2.198-2.067-1.009-0.402-2.197-0.527-3.565-0.377-1.371 0.159-2.835 0.603-4.392 1.331v0c-1.588 0.743-2.868 1.612-3.84 2.609-0.969 0.988-1.594 2.01-1.874 3.068-0.284 1.051-0.212 2.034 0.216 2.949v0c0.457 0.976 1.189 1.665 2.197 2.066 1.012 0.408 2.206 0.531 3.584 0.369 1.377-0.162 2.835-0.603 4.373-1.323v0c1.606-0.751 2.891-1.619 3.854-2.604 0.96-0.991 1.583-2.009 1.869-3.054 0.284-1.051 0.209-2.04-0.224-2.967zM46.93 213.52v0l-0.408 0.273c-0.331-0.46-0.639-0.767-0.923-0.922-0.282-0.164-0.588-0.194-0.919-0.088-0.329 0.097-0.749 0.315-1.26 0.656v0l-6.212 4.146c-0.965 0.644-1.846 1.141-2.644 1.493-0.798 0.352-1.562 0.546-2.293 0.583v0c-0.81 0.04-1.61-0.152-2.401-0.575-0.795-0.429-1.476-1.069-2.043-1.92v0c-0.443-0.664-0.784-1.347-1.023-2.049-0.242-0.707-0.302-1.43-0.179-2.167v0c0.121-0.655 0.318-1.237 0.592-1.748 0.274-0.511 0.692-1.015 1.254-1.513 0.571-0.496 1.322-1.054 2.252-1.675v0l6.485-4.327c0.511-0.341 0.857-0.633 1.038-0.878 0.191-0.242 0.248-0.514 0.17-0.814-0.068-0.299-0.251-0.689-0.548-1.172v0l0.408-0.272c0.182 0.297 0.421 0.687 0.719 1.168 0.299 0.473 0.628 0.979 0.988 1.518v0c0.322 0.482 0.645 0.955 0.971 1.418 0.335 0.465 0.614 0.853 0.837 1.163v0l-0.408 0.273c-0.331-0.46-0.622-0.778-0.872-0.956-0.244-0.182-0.517-0.233-0.817-0.156-0.295 0.074-0.698 0.281-1.209 0.622v0l-6.833 4.56c-0.936 0.625-1.748 1.269-2.437 1.934-0.692 0.659-1.12 1.375-1.285 2.148-0.159 0.77 0.09 1.646 0.745 2.627v0c0.697 1.044 1.466 1.699 2.308 1.966 0.838 0.261 1.741 0.232 2.709-0.086 0.963-0.314 1.952-0.81 2.968-1.488v0l6.442-4.299c0.511-0.341 0.864-0.659 1.061-0.954 0.199-0.305 0.266-0.633 0.204-0.985-0.061-0.361-0.238-0.78-0.531-1.256v0l0.408-0.273c0.151 0.252 0.355 0.587 0.611 1.007 0.257 0.41 0.502 0.789 0.732 1.135v0c0.238 0.357 0.481 0.708 0.727 1.052 0.252 0.34 0.457 0.617 0.616 0.831zM56.877 224.719v0l-0.359 0.336c-0.397-0.394-0.736-0.662-1.015-0.802-0.27-0.139-0.548-0.146-0.832-0.02-0.274 0.126-0.636 0.399-1.084 0.818v0l-8.989 8.407c-0.433 0.405-0.727 0.745-0.881 1.021-0.149 0.28-0.161 0.557-0.035 0.831 0.126 0.284 0.37 0.64 0.732 1.067v0l-0.366 0.342c-0.231-0.297-0.54-0.657-0.927-1.08-0.386-0.423-0.778-0.846-1.173-1.27v0c-0.438-0.468-0.853-0.907-1.245-1.316-0.387-0.404-0.712-0.721-0.974-0.951v0l0.366-0.343c0.402 0.39 0.741 0.657 1.015 0.801 0.265 0.144 0.543 0.151 0.832 0.021 0.284-0.135 0.643-0.406 1.077-0.811v0l8.988-8.408c0.448-0.419 0.744-0.762 0.889-1.027 0.144-0.275 0.156-0.552 0.035-0.831-0.121-0.289-0.365-0.644-0.732-1.067v0l0.359-0.335c0.228 0.263 0.525 0.606 0.892 1.028 0.377 0.423 0.784 0.868 1.222 1.337v0c0.396 0.423 0.795 0.84 1.196 1.248 0.406 0.404 0.743 0.739 1.009 1.004zM73.384 238.499v0l-0.313 0.378c-0.449-0.345-0.819-0.567-1.109-0.666-0.291-0.108-0.567-0.08-0.827 0.085-0.262 0.155-0.588 0.469-0.98 0.942v0l-7.852 9.478c-0.379 0.457-0.624 0.834-0.737 1.13-0.118 0.292-0.094 0.568 0.07 0.829 0.155 0.262 0.442 0.583 0.861 0.965v0l-0.32 0.386c-0.272-0.27-0.627-0.59-1.063-0.961-0.437-0.371-0.876-0.739-1.317-1.104v0c-0.499-0.413-0.966-0.796-1.401-1.148-0.44-0.356-0.805-0.632-1.095-0.827v0l0.32-0.386c0.453 0.34 0.823 0.562 1.108 0.666 0.282 0.109 0.557 0.081 0.828-0.085 0.27-0.166 0.595-0.477 0.973-0.934v0l8.707-10.51 0.025 0.114-15.096 8.697-0.308-0.255 5.46-16.388-8.361 10.092c-0.379 0.457-0.635 0.852-0.768 1.184-0.129 0.327-0.116 0.648 0.039 0.962 0.155 0.315 0.474 0.689 0.956 1.124v0l-0.32 0.386c-0.209-0.218-0.496-0.482-0.859-0.791-0.369-0.314-0.718-0.608-1.049-0.883v0c-0.315-0.261-0.638-0.524-0.968-0.788-0.33-0.265-0.614-0.473-0.85-0.625v0l0.319-0.386c0.448 0.336 0.831 0.542 1.148 0.619 0.312 0.072 0.614 0.013 0.906-0.18 0.291-0.202 0.626-0.531 1.005-0.988v0l7.695-9.288c0.392-0.473 0.642-0.85 0.751-1.131 0.108-0.291 0.085-0.567-0.07-0.829-0.156-0.271-0.443-0.593-0.861-0.966v0l0.313-0.378c0.207 0.189 0.466 0.426 0.779 0.711 0.317 0.28 0.633 0.551 0.948 0.813v0c0.284 0.235 0.579 0.471 0.888 0.708 0.312 0.232 0.575 0.428 0.789 0.588v0l-5.131 15.013-0.454-0.11 13.851-7.962c0.152 0.126 0.302 0.25 0.449 0.372 0.142 0.117 0.291 0.241 0.449 0.372v0c0.441 0.366 0.887 0.726 1.337 1.081 0.454 0.35 0.833 0.641 1.135 0.874zM80.836 242.621v0l-2.627 16.529c-0.098 0.669-0.065 1.174 0.1 1.515 0.168 0.335 0.36 0.573 0.577 0.716v0l-0.252 0.433c-0.266-0.194-0.603-0.415-1.012-0.661-0.415-0.25-0.829-0.495-1.241-0.736v0c-0.56-0.326-1.083-0.628-1.57-0.903-0.492-0.279-0.895-0.49-1.206-0.633v0l0.252-0.433c0.738 0.399 1.273 0.545 1.604 0.438 0.331-0.107 0.566-0.605 0.706-1.495v0l2.229-12.983 0.496-0.078-9.378 7.512c-0.751 0.597-1.244 1.118-1.481 1.564-0.242 0.443-0.26 0.851-0.051 1.226 0.206 0.365 0.606 0.728 1.2 1.09v0l-0.253 0.433c-0.383-0.263-0.792-0.525-1.224-0.785-0.433-0.26-0.834-0.498-1.205-0.715v0c-0.359-0.21-0.665-0.384-0.916-0.522-0.257-0.142-0.5-0.26-0.729-0.354v0l0.252-0.433c0.33 0.098 0.718 0.103 1.164 0.016 0.455-0.09 0.995-0.387 1.621-0.891v0l12.608-10.046c0.053 0.031 0.109 0.064 0.168 0.098 0.059 0.034 0.115 0.067 0.168 0.098zM71.97 249.661l6.169 3.598-0.248 0.424-6.381-3.721zM95.744 249.74v0c0.992 0.421 1.73 0.908 2.214 1.461 0.481 0.56 0.902 1.149 1.261 1.769v0c0.137 0.236 0.259 0.377 0.366 0.422v0c0.289 0.123 0.677-0.261 1.165-1.151v0l0.518 0.22c-0.265 0.554-0.577 1.23-0.937 2.025-0.356 0.805-0.815 1.869-1.377 3.195v0l-0.527-0.224c0.165-0.686 0.299-1.359 0.401-2.019 0.093-0.657 0.058-1.272-0.107-1.846v0c-0.206-0.754-0.601-1.44-1.183-2.057-0.585-0.611-1.258-1.078-2.017-1.401v0c-0.76-0.322-1.526-0.429-2.299-0.319-0.779 0.107-1.537 0.419-2.275 0.936-0.738 0.517-1.434 1.214-2.087 2.092-0.654 0.878-1.243 1.936-1.769 3.173v0c-1.161 2.738-1.569 4.932-1.224 6.582 0.347 1.644 1.45 2.86 3.309 3.649v0c0.546 0.232 1.054 0.354 1.522 0.367 0.475 0.016 0.858-0.006 1.151-0.067v0c0.371-0.072 0.632-0.18 0.782-0.324 0.15-0.144 0.286-0.36 0.408-0.649v0l0.931-2.195c0.264-0.622 0.401-1.112 0.413-1.47 0.002-0.355-0.137-0.655-0.419-0.899-0.281-0.245-0.738-0.513-1.371-0.804v0l0.192-0.452c0.271 0.13 0.587 0.275 0.949 0.436 0.359 0.167 0.741 0.34 1.146 0.519 0.399 0.177 0.765 0.336 1.098 0.477v0c0.502 0.213 0.96 0.4 1.374 0.561 0.41 0.152 0.756 0.28 1.037 0.384v0l-0.191 0.452c-0.522-0.184-0.894-0.198-1.117-0.04-0.229 0.155-0.524 0.659-0.886 1.513v0l-1.918 4.521-0.461-0.196c0.097-0.263 0.16-0.569 0.19-0.919 0.027-0.344-0.056-0.557-0.251-0.64v0c-0.094-0.04-0.195-0.057-0.301-0.05-0.113 0.004-0.318 0.043-0.617 0.116v0c-0.665 0.17-1.326 0.245-1.984 0.225-0.658-0.02-1.361-0.188-2.109-0.505v0c-2.355-0.999-3.886-2.497-4.595-4.494-0.709-1.997-0.524-4.267 0.555-6.81v0c0.756-1.783 1.729-3.186 2.918-4.208 1.192-1.028 2.489-1.659 3.893-1.894 1.4-0.243 2.809-0.064 4.229 0.538zM110.25 255.184v0l-0.14 0.47c-0.542-0.14-0.969-0.2-1.281-0.18-0.304 0.016-0.547 0.15-0.729 0.402-0.173 0.247-0.348 0.665-0.523 1.253v0l-3.521 11.794c-0.17 0.569-0.252 1.01-0.246 1.325 0.012 0.317 0.142 0.562 0.389 0.735 0.252 0.182 0.642 0.366 1.169 0.552v0l-0.143 0.481c-0.35-0.14-0.798-0.295-1.345-0.466-0.547-0.17-1.098-0.339-1.654-0.504v0c-0.614-0.183-1.194-0.353-1.738-0.509-0.538-0.153-0.978-0.264-1.321-0.33v0l0.143-0.48c0.544 0.134 0.971 0.194 1.281 0.179 0.302-0.01 0.545-0.143 0.729-0.402 0.177-0.26 0.351-0.675 0.52-1.243v0l3.521-11.793c0.176-0.588 0.259-1.033 0.249-1.335-0.014-0.31-0.144-0.555-0.389-0.736-0.25-0.188-0.64-0.373-1.17-0.552v0l0.141-0.47c0.329 0.113 0.759 0.259 1.289 0.438 0.539 0.175 1.115 0.354 1.73 0.538v0c0.556 0.166 1.11 0.324 1.662 0.475 0.555 0.144 1.014 0.264 1.377 0.358zM127.684 258.397v0l-0.087 0.483c-0.561-0.08-0.995-0.072-1.304 0.025-0.307 0.09-0.541 0.29-0.701 0.601-0.159 0.304-0.293 0.758-0.402 1.362v0l-2.633 14.578c-0.094-0.017-0.185-0.033-0.271-0.049-0.094-0.017-0.188-0.034-0.282-0.051v0l-7.398-17.699-2.329 12.897c-0.105 0.584-0.135 1.053-0.088 1.408 0.048 0.348 0.217 0.621 0.507 0.82 0.29 0.198 0.751 0.368 1.384 0.51v0l-0.089 0.493c-0.289-0.087-0.668-0.176-1.137-0.268-0.475-0.093-0.924-0.177-1.347-0.253v0c-0.403-0.073-0.813-0.143-1.23-0.212-0.417-0.068-0.767-0.111-1.048-0.127v0l0.089-0.493c0.555 0.073 0.99 0.064 1.304-0.025 0.307-0.09 0.541-0.29 0.701-0.601 0.155-0.319 0.285-0.77 0.39-1.354v0l2.144-11.87c0.109-0.604 0.142-1.056 0.099-1.355-0.049-0.307-0.205-0.536-0.469-0.687-0.269-0.16-0.677-0.299-1.224-0.419v0l0.087-0.483c0.273 0.063 0.615 0.142 1.028 0.238 0.414 0.089 0.822 0.169 1.225 0.242v0c0.362 0.065 0.706 0.121 1.031 0.165 0.333 0.039 0.631 0.076 0.895 0.11v0l6.22 14.835 1.887-10.45c0.109-0.604 0.139-1.077 0.09-1.419-0.048-0.348-0.217-0.621-0.507-0.819-0.289-0.205-0.75-0.375-1.384-0.51v0l0.087-0.483c0.293 0.067 0.676 0.153 1.149 0.259 0.481 0.101 0.923 0.187 1.325 0.26v0c0.423 0.076 0.844 0.145 1.262 0.208 0.42 0.055 0.762 0.099 1.026 0.133zM141.775 258.961v0c-0.093 0.576-0.162 1.137-0.206 1.681-0.051 0.544-0.082 0.956-0.094 1.235v0c-0.013 0.3-0.015 0.586-0.006 0.86 0.002 0.273 0.006 0.499 0.012 0.677v0l-0.562-0.025c-0.06-0.979-0.17-1.755-0.33-2.328-0.153-0.58-0.445-0.999-0.878-1.257-0.426-0.257-1.075-0.405-1.947-0.442v0l-2.065-0.089c-0.559-0.024-0.987 0.002-1.283 0.078-0.29 0.076-0.492 0.259-0.607 0.547-0.108 0.282-0.175 0.73-0.202 1.343v0l-0.529 12.297c-0.026 0.593 0.003 1.041 0.085 1.345 0.089 0.304 0.275 0.507 0.558 0.608 0.289 0.101 0.713 0.164 1.272 0.188v0l1.809 0.077c1.043 0.045 1.839-0.061 2.389-0.316 0.55-0.256 0.959-0.699 1.225-1.33 0.266-0.623 0.48-1.478 0.643-2.563v0l0.572 0.024c-0.067 0.441-0.116 1.036-0.148 1.786v0c-0.013 0.313-0.023 0.764-0.028 1.351 0.002 0.587 0.024 1.196 0.065 1.825v0c-0.844-0.07-1.793-0.132-2.849-0.184-1.063-0.053-2.006-0.097-2.831-0.132v0c-0.497-0.021-1.155-0.05-1.973-0.085-0.818-0.035-1.687-0.069-2.607-0.102-0.927-0.033-1.797-0.05-2.609-0.051v0l0.022-0.501c0.56-0.003 0.989-0.05 1.286-0.139 0.29-0.083 0.493-0.272 0.608-0.568 0.108-0.296 0.175-0.74 0.201-1.333v0l0.529-12.296c0.026-0.613-0.002-1.065-0.085-1.356-0.09-0.297-0.275-0.503-0.557-0.617-0.288-0.122-0.711-0.205-1.269-0.25v0l0.021-0.49c0.81 0.049 1.678 0.103 2.604 0.163 0.919 0.053 1.788 0.098 2.606 0.133 0.818 0.035 1.475 0.064 1.973 0.085v0c0.763 0.033 1.629 0.067 2.596 0.101 0.968 0.035 1.831 0.052 2.589 0.05zM132.609 267.056l4.539 0.195c0 0-0.004 0.085-0.011 0.256-0.007 0.164-0.011 0.245-0.011 0.245v0l-4.538-0.195c0 0 0.004-0.082 0.01-0.246 0.007-0.17 0.011-0.256 0.011-0.255zM137.432 263.987l0.572 0.024c-0.102 0.938-0.16 1.655-0.175 2.154-0.015 0.498-0.031 0.954-0.048 1.37v0c-0.018 0.409-0.03 0.862-0.038 1.36-0.001 0.498 0.012 1.219 0.039 2.162v0l-0.572-0.024c-0.045-0.534-0.101-1.056-0.168-1.564-0.074-0.508-0.254-0.929-0.54-1.262-0.293-0.333-0.804-0.516-1.533-0.548v0l0.022-0.501c0.729 0.031 1.245-0.134 1.547-0.496 0.309-0.369 0.516-0.807 0.62-1.315 0.104-0.514 0.195-0.968 0.274-1.36zM147.578 273.444v0c0.361-0.017 0.661 0.04 0.899 0.172 0.239 0.139 0.439 0.32 0.6 0.545v0c0.19 0.257 0.32 0.541 0.389 0.852 0.063 0.311 0.099 0.565 0.108 0.763v0c0.039 0.811-0.134 1.556-0.518 2.237-0.377 0.68-0.995 1.249-1.854 1.707v0l-0.247-0.439c0.501-0.236 0.928-0.594 1.28-1.075 0.353-0.481 0.517-0.964 0.495-1.448v0c-0.009-0.198-0.045-0.37-0.107-0.517v0c-0.248 0.23-0.546 0.354-0.894 0.371v0c-0.429 0.021-0.811-0.101-1.144-0.365-0.327-0.271-0.502-0.652-0.526-1.143v0c-0.022-0.463 0.116-0.852 0.415-1.167 0.306-0.308 0.674-0.473 1.103-0.493zM177.952 252.629v0l0.114 0.478c-0.289 0.139-0.584 0.402-0.884 0.79-0.3 0.387-0.475 0.976-0.525 1.766v0l-1.063 15.716c-0.033 0.008-0.066 0.016-0.1 0.024-0.033 0.008-0.066 0.016-0.099 0.024v0c-0.027 0.006-0.056 0.013-0.09 0.021-0.033 0.008-0.066 0.016-0.099 0.024v0l-8.74-13.953c-0.363-0.58-0.697-0.935-1.001-1.066-0.298-0.132-0.562-0.181-0.793-0.147v0l-0.114-0.478c0.288-0.055 0.654-0.125 1.097-0.209 0.434-0.09 0.854-0.183 1.258-0.279v0c0.63-0.151 1.216-0.297 1.757-0.441 0.539-0.15 0.976-0.272 1.311-0.366v0l0.115 0.478c-0.473 0.134-0.842 0.275-1.109 0.422-0.26 0.146-0.377 0.36-0.352 0.642 0.027 0.288 0.211 0.721 0.552 1.298v0l6.25 10.268-0.269 0.369 0.793-10.771c0.08-0.959 0.047-1.68-0.097-2.165-0.137-0.486-0.399-0.788-0.784-0.907-0.386-0.118-0.92-0.106-1.601 0.036v0l-0.114-0.478c0.468-0.098 0.946-0.194 1.435-0.29 0.487-0.102 0.94-0.204 1.358-0.304v0c0.418-0.1 0.761-0.189 1.03-0.267 0.267-0.085 0.522-0.163 0.764-0.235zM161.075 256.66v0l0.114 0.478c-0.41 0.133-0.689 0.287-0.836 0.463-0.156 0.17-0.196 0.397-0.121 0.681 0.073 0.277 0.249 0.645 0.527 1.105v0l6.468 10.52-0.452 0.749 0.796-11.592 0.507 0.489-0.913 13.84c-0.033 0.008-0.063 0.015-0.089 0.021-0.033 0.008-0.066 0.016-0.1 0.024v0c-0.033 0.008-0.066 0.016-0.099 0.024-0.033 0.008-0.063 0.015-0.09 0.021v0l-8.749-13.951c-0.356-0.581-0.72-0.929-1.091-1.044-0.364-0.116-0.678-0.154-0.942-0.112v0l-0.114-0.477c0.328-0.064 0.73-0.143 1.206-0.236 0.481-0.101 0.947-0.205 1.398-0.313v0c0.531-0.127 1.023-0.251 1.478-0.374 0.453-0.129 0.821-0.235 1.102-0.316zM190.012 247.753v0c0.152 0.564 0.32 1.102 0.505 1.616 0.178 0.517 0.318 0.905 0.422 1.164v0c0.112 0.279 0.228 0.541 0.348 0.787 0.114 0.248 0.211 0.452 0.289 0.611v0l-0.522 0.21c-0.458-0.867-0.877-1.529-1.259-1.987-0.378-0.466-0.817-0.727-1.317-0.784-0.494-0.059-1.146 0.074-1.956 0.399v0l-1.919 0.768c-0.519 0.208-0.898 0.408-1.137 0.599-0.233 0.189-0.342 0.438-0.329 0.749 0.018 0.301 0.141 0.737 0.37 1.307v0l4.578 11.425c0.221 0.551 0.431 0.948 0.631 1.19 0.207 0.241 0.459 0.349 0.758 0.325 0.305-0.027 0.717-0.144 1.237-0.352v0l1.681-0.674c0.969-0.388 1.651-0.812 2.047-1.272 0.396-0.46 0.586-1.032 0.569-1.716-0.014-0.678-0.171-1.544-0.469-2.601v0l0.532-0.213c0.121 0.429 0.32 0.992 0.599 1.689v0c0.117 0.291 0.294 0.705 0.531 1.242 0.244 0.534 0.514 1.08 0.811 1.637v0c-0.798 0.283-1.689 0.618-2.673 1.005-0.99 0.389-1.868 0.738-2.634 1.045v0c-0.462 0.185-1.073 0.43-1.833 0.734-0.76 0.304-1.566 0.631-2.418 0.98-0.859 0.351-1.658 0.694-2.399 1.027v0l-0.186-0.465c0.509-0.233 0.881-0.452 1.114-0.656 0.23-0.195 0.337-0.451 0.321-0.768-0.023-0.314-0.145-0.747-0.365-1.297v0l-4.578-11.425c-0.228-0.57-0.44-0.97-0.636-1.2-0.204-0.234-0.458-0.345-0.762-0.334-0.313 0.008-0.733 0.106-1.259 0.295v0l-0.183-0.456c0.758-0.289 1.572-0.597 2.441-0.923 0.86-0.33 1.67-0.647 2.429-0.951 0.76-0.304 1.371-0.549 1.833-0.735v0c0.709-0.284 1.512-0.61 2.408-0.976 0.896-0.367 1.69-0.707 2.38-1.019zM184.99 258.902l4.217-1.69c0 0 0.032 0.079 0.095 0.238 0.061 0.152 0.091 0.228 0.091 0.228v0l-4.216 1.689c0 0-0.03-0.076-0.092-0.228-0.063-0.158-0.095-0.237-0.095-0.237zM188.122 254.12l0.532-0.213c0.293 0.897 0.535 1.575 0.727 2.034 0.192 0.46 0.365 0.883 0.519 1.269v0c0.152 0.38 0.327 0.798 0.525 1.255 0.204 0.455 0.513 1.106 0.927 1.955v0l-0.532 0.213c-0.261-0.468-0.527-0.92-0.797-1.356-0.276-0.433-0.613-0.742-1.011-0.928-0.404-0.183-0.945-0.139-1.623 0.132v0l-0.186-0.466c0.677-0.271 1.079-0.635 1.206-1.089 0.13-0.464 0.138-0.948 0.024-1.453-0.117-0.512-0.22-0.962-0.311-1.353zM204.974 238.632v0c0.918-0.59 1.759-0.94 2.524-1.051 0.768-0.104 1.498-0.123 2.189-0.057v0c0.414 0.026 0.641-0.088 0.681-0.34 0.04-0.253-0.103-0.696-0.429-1.33v0l0.482-0.31c0.303 0.535 0.685 1.173 1.146 1.915 0.459 0.751 1.077 1.732 1.855 2.943v0l-0.482 0.31c-0.485-0.54-0.88-0.959-1.185-1.257-0.315-0.3-0.611-0.54-0.888-0.719-0.283-0.175-0.601-0.323-0.955-0.444v0c-0.799-0.297-1.609-0.365-2.428-0.203-0.816 0.168-1.586 0.484-2.309 0.949v0c-0.683 0.439-1.191 1.005-1.524 1.697-0.333 0.693-0.491 1.487-0.474 2.385 0.017 0.897 0.209 1.864 0.576 2.901 0.365 1.047 0.908 2.132 1.631 3.257v0c0.752 1.17 1.534 2.128 2.344 2.872 0.82 0.746 1.637 1.291 2.451 1.635 0.816 0.335 1.614 0.474 2.396 0.418 0.779-0.063 1.501-0.308 2.167-0.736v0c0.625-0.402 1.2-0.946 1.724-1.631 0.52-0.691 0.797-1.441 0.829-2.248v0c0.046-0.597-0.024-1.172-0.209-1.726-0.188-0.544-0.506-1.272-0.954-2.184v0l0.482-0.31c0.815 1.268 1.478 2.281 1.989 3.038 0.509 0.767 0.948 1.405 1.316 1.915v0l-0.482 0.31c-0.441-0.56-0.777-0.875-1.008-0.945-0.232-0.07-0.437 0.09-0.616 0.481v0c-0.284 0.693-0.624 1.362-1.021 2.006-0.406 0.642-1.062 1.255-1.969 1.838v0c-1.32 0.848-2.667 1.293-4.043 1.334-1.386 0.039-2.715-0.326-3.989-1.097-1.272-0.78-2.416-1.962-3.434-3.545v0c-1.003-1.561-1.595-3.106-1.776-4.636-0.184-1.536 0.012-2.951 0.59-4.247 0.572-1.292 1.507-2.355 2.803-3.188zM212.488 234.395l-0.323-0.369c0.271-0.219 0.623-0.505 1.058-0.858 0.435-0.362 0.858-0.723 1.269-1.082v0c0.585-0.512 1.14-1.007 1.665-1.484 0.52-0.482 0.894-0.822 1.119-1.02v0c1.504-1.316 2.905-1.988 4.202-2.018 1.288-0.03 2.334 0.414 3.138 1.333v0c0.328 0.375 0.604 0.84 0.827 1.397 0.219 0.551 0.311 1.174 0.275 1.867-0.042 0.698-0.275 1.446-0.701 2.244-0.42 0.794-1.116 1.615-2.086 2.464v0l-1.794 1.57-0.324-0.37 1.602-1.401c0.888-0.777 1.44-1.509 1.655-2.195 0.22-0.691 0.213-1.342-0.022-1.952-0.239-0.615-0.61-1.21-1.114-1.786v0c-0.862-0.986-1.763-1.544-2.701-1.674-0.943-0.135-1.982 0.293-3.117 1.286v0c-0.57 0.498-0.848 0.932-0.833 1.3 0.01 0.363 0.297 0.868 0.863 1.515v0l8.104 9.264c0.391 0.447 0.721 0.751 0.99 0.914 0.275 0.159 0.551 0.179 0.829 0.063 0.288-0.116 0.652-0.348 1.091-0.696v0l0.33 0.377c-0.305 0.221-0.675 0.518-1.111 0.89-0.436 0.372-0.872 0.749-1.308 1.131v0c-0.483 0.422-0.935 0.822-1.356 1.2-0.416 0.373-0.744 0.687-0.984 0.942v0l-0.33-0.377c0.403-0.389 0.681-0.718 0.835-0.988 0.153-0.26 0.169-0.537 0.048-0.831-0.126-0.289-0.384-0.656-0.775-1.103v0l-8.103-9.264c-0.404-0.462-0.737-0.769-0.997-0.922-0.27-0.153-0.547-0.174-0.83-0.062-0.293 0.111-0.656 0.343-1.09 0.695zM221.244 238.344l-0.314-0.282c0.695-0.563 1.251-0.999 1.668-1.309 0.412-0.306 0.75-0.552 1.013-0.738 0.264-0.185 0.524-0.359 0.782-0.52v0c0.958-0.593 1.779-0.867 2.462-0.822 0.693 0.046 1.464 0.378 2.312 0.996v0l2.125 1.497c0.604 0.442 1.078 0.725 1.423 0.85 0.344 0.134 0.648 0.072 0.911-0.186v0c0.202-0.194 0.32-0.416 0.356-0.665 0.031-0.254 0.035-0.556 0.01-0.906v0l0.467-0.041c0.075 0.614 0.061 1.147-0.042 1.599-0.098 0.448-0.403 0.896-0.916 1.346v0c-0.462 0.404-0.984 0.621-1.566 0.649-0.592 0.028-1.323-0.279-2.193-0.922v0l-2.053-1.507c-0.58-0.435-1.11-0.787-1.59-1.056-0.49-0.27-0.959-0.402-1.409-0.399-0.454-0.001-0.93 0.216-1.428 0.651v0zM232.281 214.127v0c0.388 0.436 0.779 0.843 1.174 1.221 0.39 0.383 0.689 0.667 0.898 0.853v0c0.224 0.199 0.445 0.382 0.663 0.548 0.213 0.171 0.39 0.31 0.532 0.418v0l-0.374 0.42c-0.797-0.571-1.468-0.976-2.014-1.214-0.546-0.248-1.056-0.286-1.528-0.113-0.468 0.168-0.993 0.578-1.573 1.23v0l-1.372 1.545c-0.371 0.418-0.622 0.766-0.75 1.045-0.124 0.273-0.11 0.545 0.04 0.816 0.151 0.262 0.456 0.596 0.915 1.004v0l9.2 8.176c0.444 0.394 0.809 0.655 1.097 0.783 0.292 0.123 0.567 0.107 0.823-0.049 0.261-0.16 0.577-0.45 0.949-0.867v0l1.203-1.354c0.693-0.78 1.114-1.464 1.263-2.053 0.149-0.589 0.063-1.185-0.258-1.789-0.316-0.6-0.843-1.305-1.581-2.117v0l0.381-0.429c0.3 0.33 0.73 0.744 1.29 1.243v0c0.235 0.208 0.578 0.5 1.03 0.874 0.457 0.369 0.942 0.737 1.457 1.103v0c-0.587 0.61-1.235 1.307-1.942 2.093-0.712 0.791-1.342 1.495-1.89 2.111v0c-0.331 0.372-0.768 0.864-1.312 1.476-0.544 0.612-1.119 1.264-1.725 1.957-0.611 0.698-1.173 1.362-1.687 1.991v0l-0.375-0.333c0.351-0.436 0.586-0.798 0.704-1.085 0.119-0.278 0.1-0.554-0.056-0.83-0.161-0.271-0.463-0.603-0.907-0.997v0l-9.2-8.175c-0.459-0.408-0.827-0.671-1.105-0.79-0.287-0.118-0.564-0.104-0.831 0.041-0.276 0.147-0.608 0.422-0.994 0.827v0l-0.367-0.326c0.549-0.598 1.14-1.236 1.771-1.916 0.622-0.679 1.205-1.325 1.748-1.937 0.544-0.612 0.981-1.104 1.312-1.476v0c0.507-0.571 1.08-1.221 1.718-1.949 0.638-0.729 1.196-1.387 1.673-1.976zM232.77 226.346l3.018-3.396c0 0 0.064 0.057 0.191 0.17 0.122 0.109 0.184 0.163 0.183 0.163v0l-3.017 3.396c0 0-0.061-0.054-0.183-0.163-0.127-0.113-0.191-0.17-0.192-0.17zM233.436 220.668l0.38-0.428c0.663 0.671 1.183 1.169 1.559 1.495 0.377 0.326 0.721 0.627 1.032 0.903v0c0.306 0.272 0.649 0.568 1.031 0.889 0.386 0.315 0.953 0.76 1.702 1.334v0l-0.381 0.428c-0.443-0.302-0.883-0.588-1.319-0.857-0.441-0.264-0.881-0.39-1.319-0.378-0.444 0.017-0.908 0.298-1.393 0.843v0l-0.374-0.333c0.485-0.546 0.682-1.05 0.592-1.514-0.091-0.473-0.3-0.91-0.628-1.31-0.333-0.406-0.627-0.763-0.882-1.072zM237.478 206.246v0l16.344 3.601c0.662 0.138 1.168 0.134 1.518-0.01 0.344-0.148 0.594-0.326 0.749-0.534v0l0.417 0.278c-0.21 0.254-0.45 0.577-0.72 0.971-0.274 0.399-0.543 0.798-0.807 1.195v0c-0.359 0.539-0.691 1.044-0.995 1.513-0.308 0.475-0.542 0.864-0.703 1.167v0l-0.417-0.278c0.442-0.714 0.619-1.239 0.532-1.575-0.087-0.337-0.571-0.601-1.451-0.793v0l-12.828-2.994-0.049-0.499 6.944 9.806c0.551 0.785 1.043 1.308 1.474 1.571 0.428 0.268 0.835 0.31 1.22 0.123 0.376-0.184 0.763-0.562 1.16-1.133v0l0.417 0.278c-0.285 0.367-0.571 0.759-0.856 1.175-0.285 0.416-0.547 0.803-0.785 1.162v0c-0.23 0.346-0.422 0.641-0.575 0.883-0.157 0.248-0.289 0.484-0.397 0.707v0l-0.417-0.278c0.117-0.324 0.145-0.71 0.084-1.161-0.063-0.46-0.327-1.016-0.793-1.67v0l-9.282-13.181c0.034-0.051 0.07-0.105 0.108-0.162 0.038-0.057 0.074-0.111 0.108-0.162zM243.981 215.513l3.956-5.945 0.409 0.272-4.092 6.15zM247.894 187.955v0c0.527 0.347 1.046 0.666 1.556 0.957 0.513 0.285 0.909 0.5 1.188 0.642v0c0.358 0.183 0.692 0.347 1.002 0.49 0.319 0.14 0.6 0.265 0.843 0.374v0l-0.261 0.51c-1.085-0.425-1.97-0.702-2.655-0.83-0.685-0.128-1.275-0.039-1.769 0.267-0.485 0.304-0.965 0.92-1.441 1.849v0l-0.61 1.193 12.568 6.432c0.589 0.301 1.057 0.472 1.404 0.512 0.353 0.043 0.666-0.073 0.937-0.348 0.268-0.269 0.573-0.707 0.914-1.313v0l0.446 0.228c-0.226 0.367-0.493 0.843-0.8 1.429-0.308 0.586-0.617 1.182-0.928 1.79v0c-0.339 0.662-0.654 1.286-0.946 1.871-0.289 0.58-0.51 1.057-0.664 1.431v0l-0.446-0.229c0.293-0.632 0.471-1.138 0.536-1.518 0.061-0.375-0.029-0.693-0.27-0.954-0.235-0.258-0.648-0.538-1.237-0.84v0l-12.568-6.433-0.61 1.193c-0.466 0.911-0.684 1.658-0.653 2.241 0.037 0.586 0.308 1.119 0.813 1.6 0.505 0.481 1.247 1.037 2.227 1.668v0l-0.261 0.51c-0.221-0.152-0.485-0.31-0.792-0.474-0.3-0.161-0.63-0.334-0.988-0.518v0c-0.279-0.143-0.685-0.339-1.216-0.588-0.535-0.243-1.097-0.477-1.687-0.702v0c0.329-0.613 0.689-1.279 1.081-1.998 0.385-0.722 0.767-1.454 1.146-2.195 0.376-0.735 0.718-1.403 1.025-2.004v0c0.311-0.607 0.653-1.275 1.026-2.003 0.373-0.729 0.741-1.463 1.105-2.204 0.358-0.744 0.686-1.423 0.985-2.036zM252.664 174.751v0c0.522 0.262 1.036 0.495 1.542 0.7 0.504 0.212 0.887 0.365 1.15 0.46v0c0.282 0.102 0.555 0.19 0.819 0.264 0.261 0.08 0.477 0.144 0.648 0.192v0l-0.191 0.529c-0.952-0.236-1.725-0.364-2.32-0.384-0.599-0.028-1.086 0.125-1.462 0.461-0.373 0.329-0.708 0.904-1.006 1.724v0l-0.704 1.943c-0.191 0.526-0.294 0.942-0.311 1.248-0.014 0.3 0.099 0.547 0.34 0.744 0.237 0.187 0.644 0.386 1.221 0.594v0l11.572 4.193c0.558 0.202 0.994 0.309 1.309 0.322 0.317 0.006 0.566-0.111 0.747-0.35 0.183-0.246 0.37-0.631 0.56-1.157v0l0.617-1.702c0.355-0.981 0.494-1.773 0.414-2.375-0.079-0.602-0.38-1.124-0.901-1.567-0.515-0.441-1.266-0.901-2.252-1.382v0l0.195-0.539c0.401 0.196 0.954 0.422 1.659 0.678v0c0.295 0.107 0.722 0.251 1.28 0.431 0.561 0.174 1.148 0.336 1.761 0.486v0c-0.32 0.784-0.664 1.671-1.03 2.662-0.369 0.998-0.694 1.885-0.975 2.661v0c-0.17 0.468-0.394 1.087-0.673 1.857-0.279 0.77-0.572 1.588-0.879 2.456-0.31 0.874-0.587 1.699-0.831 2.474v0l-0.471-0.171c0.165-0.535 0.249-0.958 0.253-1.268 0.008-0.302-0.112-0.552-0.36-0.751-0.25-0.192-0.653-0.389-1.211-0.591v0l-11.571-4.193c-0.577-0.209-1.017-0.318-1.319-0.325-0.311-0.004-0.563 0.112-0.756 0.346-0.203 0.239-0.409 0.617-0.619 1.136v0l-0.462-0.167c0.289-0.758 0.602-1.57 0.937-2.436 0.326-0.861 0.629-1.676 0.908-2.445 0.279-0.77 0.503-1.388 0.673-1.857v0c0.26-0.718 0.552-1.534 0.875-2.447 0.324-0.913 0.598-1.731 0.824-2.454zM257.638 185.922l1.547-4.271c0 0 0.08 0.029 0.241 0.087 0.154 0.056 0.231 0.084 0.231 0.084v0l-1.548 4.271c0 0-0.077-0.028-0.231-0.084-0.16-0.058-0.24-0.087-0.24-0.087zM256.156 180.401l0.195-0.538c0.864 0.378 1.531 0.649 2.002 0.812 0.47 0.163 0.901 0.316 1.292 0.457v0c0.385 0.139 0.814 0.288 1.287 0.445 0.475 0.15 1.167 0.354 2.075 0.61v0l-0.196 0.539c-0.523-0.117-1.038-0.22-1.542-0.309-0.507-0.082-0.962-0.037-1.366 0.136-0.406 0.179-0.733 0.612-0.982 1.299v0l-0.471-0.171c0.249-0.686 0.245-1.228-0.01-1.625-0.259-0.406-0.615-0.734-1.068-0.986-0.459-0.254-0.865-0.477-1.216-0.669z" fill="#233565" data-fill-palette-color="primary"></path><path d="M9.416 91.086V91.086C9.937 91.315 10.451 91.523 10.956 91.712 11.464 91.894 11.851 92.027 12.118 92.111V92.111C12.397 92.199 12.669 92.278 12.933 92.347 13.193 92.408 13.413 92.46 13.593 92.502V92.502L13.423 93.039C12.469 92.844 11.698 92.747 11.112 92.748 10.518 92.747 10.042 92.918 9.683 93.262 9.332 93.602 9.027 94.185 8.766 95.011V95.011L8.152 96.952C7.986 97.479 7.901 97.892 7.9 98.192 7.898 98.492 8.019 98.731 8.264 98.908 8.506 99.092 8.913 99.274 9.485 99.455V99.455L21.075 103.118C21.634 103.294 22.069 103.378 22.38 103.369 22.694 103.368 22.937 103.245 23.108 102.999 23.279 102.752 23.448 102.365 23.614 101.839V101.839L24.154 100.131C24.464 99.149 24.566 98.363 24.46 97.771 24.36 97.182 24.043 96.681 23.508 96.268 22.981 95.852 22.222 95.426 21.229 94.99V94.99L21.399 94.454C21.807 94.633 22.359 94.833 23.055 95.052V95.052C23.354 95.147 23.783 95.272 24.342 95.427 24.903 95.576 25.489 95.714 26.099 95.843V95.843C25.816 96.626 25.514 97.514 25.193 98.507 24.872 99.5 24.588 100.387 24.341 101.167V101.167C24.193 101.635 23.998 102.253 23.756 103.021 23.511 103.795 23.254 104.618 22.985 105.492 22.717 106.365 22.478 107.188 22.27 107.959V107.959L21.802 107.811C21.936 107.274 22.001 106.854 21.996 106.553 21.991 106.251 21.86 106.009 21.603 105.827 21.354 105.641 20.95 105.46 20.39 105.283V105.283L8.801 101.621C8.229 101.44 7.791 101.355 7.487 101.366 7.185 101.371 6.939 101.494 6.748 101.734 6.564 101.976 6.379 102.358 6.193 102.878V102.878L5.735 102.733C5.988 101.977 6.259 101.165 6.548 100.297 6.843 99.432 7.112 98.612 7.357 97.838 7.6 97.071 7.795 96.453 7.943 95.985V95.985C8.169 95.269 8.422 94.455 8.704 93.543 8.978 92.628 9.216 91.809 9.416 91.086ZM14.785 101.903L16.138 97.62C16.138 97.62 16.217 97.645 16.373 97.694 16.522 97.741 16.597 97.765 16.597 97.765V97.765L15.244 102.047C15.244 102.047 15.169 102.024 15.019 101.977 14.863 101.927 14.785 101.903 14.785 101.903ZM13.089 96.506L13.259 95.969C14.129 96.316 14.801 96.557 15.273 96.692 15.743 96.833 16.174 96.966 16.564 97.089V97.089C16.947 97.21 17.376 97.338 17.848 97.473 18.322 97.602 19.014 97.778 19.924 98.001V98.001L19.754 98.537C19.235 98.438 18.723 98.358 18.22 98.299 17.718 98.234 17.27 98.296 16.874 98.485 16.477 98.675 16.171 99.114 15.953 99.804V99.804L15.494 99.659C15.712 98.969 15.682 98.431 15.404 98.042 15.131 97.663 14.766 97.358 14.309 97.128 13.852 96.897 13.446 96.69 13.089 96.506ZM20.312 90.919L23.815 82.792 25.121 83.355 21.618 91.482ZM19.545 69.93V69.93L19.963 70.168C19.708 70.658 19.554 71.053 19.501 71.353 19.454 71.656 19.532 71.92 19.734 72.144 19.932 72.375 20.293 72.638 20.814 72.935V72.935L31.382 78.94C31.892 79.23 32.299 79.403 32.605 79.459 32.913 79.524 33.176 79.454 33.395 79.249 33.614 79.043 33.859 78.701 34.132 78.22V78.22L35.017 76.664C35.526 75.768 35.784 75.017 35.792 74.409 35.8 73.802 35.57 73.232 35.104 72.701 34.635 72.159 33.94 71.56 33.019 70.903V70.903L33.297 70.414C33.712 70.705 34.281 71.056 35.005 71.467V71.467C35.277 71.622 35.671 71.834 36.185 72.103 36.702 72.365 37.246 72.624 37.816 72.877V72.877C37.375 73.583 36.894 74.389 36.373 75.293 35.851 76.196 35.388 77.004 34.984 77.716V77.716C34.741 78.143 34.421 78.706 34.023 79.406 33.622 80.112 33.199 80.863 32.753 81.661 32.308 82.459 31.903 83.214 31.538 83.924V83.924L31.111 83.682C31.354 83.184 31.505 82.788 31.564 82.492 31.622 82.195 31.545 81.932 31.331 81.7 31.127 81.466 30.769 81.205 30.259 80.915V80.915L19.692 74.91C19.17 74.613 18.76 74.438 18.46 74.386 18.164 74.327 17.897 74.396 17.661 74.591 17.431 74.789 17.17 75.124 16.879 75.594V75.594L16.461 75.356C16.641 75.067 16.874 74.685 17.159 74.211 17.453 73.735 17.757 73.221 18.07 72.67V72.67C18.353 72.172 18.626 71.672 18.888 71.169 19.152 70.676 19.371 70.263 19.545 69.93ZM28.518 56.228V56.228L44.45 60.634C45.094 60.808 45.59 60.833 45.937 60.71 46.289 60.58 46.548 60.416 46.713 60.216V60.216L47.107 60.509C46.884 60.752 46.629 61.059 46.343 61.433 46.052 61.811 45.766 62.189 45.485 62.567V62.567C45.102 63.081 44.748 63.562 44.423 64.009 44.099 64.456 43.846 64.829 43.666 65.128V65.128L43.272 64.835C43.742 64.147 43.945 63.635 43.881 63.298 43.813 62.967 43.35 62.681 42.491 62.441V62.441L30.002 58.826 29.98 58.325 36.314 68.352C36.811 69.156 37.266 69.699 37.678 69.98 38.085 70.267 38.484 70.33 38.875 70.171 39.261 70.007 39.663 69.656 40.081 69.117V69.117L40.475 69.411C40.175 69.757 39.873 70.128 39.57 70.523 39.267 70.918 38.989 71.285 38.737 71.624V71.624C38.492 71.952 38.287 72.233 38.121 72.467 37.956 72.701 37.813 72.926 37.694 73.144V73.144L37.3 72.85C37.43 72.539 37.476 72.157 37.439 71.704 37.407 71.246 37.176 70.687 36.749 70.028V70.028L28.286 56.54C28.327 56.485 28.366 56.433 28.402 56.384 28.443 56.329 28.482 56.277 28.518 56.228ZM34.435 65.702L38.653 60.041 39.047 60.334 34.682 66.192ZM44.835 37.718V37.718L45.185 38.047C44.822 38.464 44.594 38.825 44.502 39.132 44.415 39.444 44.458 39.746 44.631 40.04 44.799 40.339 45.102 40.694 45.539 41.105V41.105L56.194 51.131C56.129 51.2 56.066 51.267 56.005 51.332 55.944 51.396 55.879 51.466 55.809 51.541V51.541L37.184 48.134 46.602 56.996C47.029 57.398 47.402 57.678 47.721 57.838 48.039 57.987 48.355 57.994 48.669 57.859 48.988 57.719 49.38 57.428 49.844 56.984V56.984L50.202 57.321C49.971 57.516 49.692 57.782 49.365 58.12 49.037 58.459 48.726 58.784 48.432 59.097V59.097C48.152 59.395 47.871 59.698 47.591 60.006 47.311 60.313 47.09 60.578 46.928 60.8V60.8L46.57 60.464C46.924 60.038 47.149 59.674 47.246 59.372 47.343 59.07 47.303 58.769 47.125 58.471 46.946 58.163 46.644 57.808 46.216 57.406V57.406L37.543 49.245C37.106 48.834 36.748 48.567 36.469 48.446 36.195 48.319 35.92 48.322 35.645 48.456 35.374 48.595 35.042 48.858 34.648 49.247V49.247L34.298 48.917C34.495 48.728 34.741 48.486 35.036 48.192 35.336 47.903 35.626 47.61 35.906 47.312V47.312C36.154 47.049 36.383 46.791 36.592 46.538 36.807 46.291 36.998 46.068 37.165 45.869V45.869L52.791 48.701 45.153 41.515C44.716 41.104 44.343 40.823 44.035 40.673 43.722 40.529 43.403 40.519 43.079 40.645 42.755 40.78 42.366 41.074 41.911 41.527V41.527L41.561 41.198C41.777 40.988 42.053 40.715 42.39 40.376 42.737 40.037 43.05 39.719 43.331 39.421V39.421C43.621 39.113 43.901 38.801 44.171 38.484 44.446 38.171 44.667 37.916 44.835 37.718ZM53.225 30.286V30.286C54.058 29.602 54.844 29.162 55.585 28.968 56.322 28.769 57.035 28.664 57.724 28.653V28.653C58.133 28.635 58.342 28.498 58.353 28.242 58.367 27.992 58.178 27.574 57.785 26.988V26.988L58.219 26.63C58.574 27.115 59.021 27.697 59.561 28.375 60.095 29.057 60.813 29.946 61.714 31.042V31.042L61.279 31.399C60.744 30.93 60.307 30.565 59.969 30.304 59.631 30.044 59.313 29.845 59.016 29.71 58.725 29.57 58.396 29.46 58.031 29.381V29.381C57.216 29.185 56.417 29.212 55.632 29.46 54.846 29.717 54.126 30.115 53.473 30.652V30.652C52.851 31.163 52.421 31.778 52.181 32.496 51.936 33.218 51.873 34.016 51.991 34.89 52.109 35.765 52.404 36.692 52.875 37.673 53.356 38.656 54.017 39.658 54.857 40.68V40.68C55.728 41.739 56.607 42.588 57.494 43.227 58.378 43.86 59.241 44.298 60.085 44.54 60.924 44.777 61.722 44.824 62.477 44.679 63.238 44.531 63.921 44.207 64.527 43.709V43.709C65.091 43.245 65.59 42.645 66.026 41.907 66.452 41.169 66.635 40.404 66.577 39.613V39.613C66.553 39.015 66.418 38.459 66.172 37.945 65.922 37.427 65.526 36.746 64.983 35.903V35.903L65.418 35.546C66.362 36.694 67.13 37.612 67.722 38.3 68.309 38.992 68.813 39.567 69.233 40.025V40.025L68.798 40.382C68.3 39.883 67.933 39.615 67.699 39.577 67.467 39.53 67.284 39.711 67.152 40.12V40.12C66.952 40.832 66.693 41.526 66.375 42.203 66.057 42.879 65.487 43.555 64.665 44.231V44.231C63.469 45.215 62.195 45.807 60.843 46.01 59.496 46.208 58.154 46 56.819 45.385 55.478 44.774 54.216 43.75 53.034 42.312V42.312C51.868 40.894 51.108 39.444 50.754 37.961 50.4 36.477 50.43 35.07 50.846 33.739 51.263 32.399 52.056 31.248 53.225 30.286ZM71.895 17.899V17.899C72.145 18.411 72.402 18.902 72.666 19.372 72.936 19.839 73.145 20.191 73.294 20.428V20.428C73.45 20.676 73.607 20.912 73.764 21.135 73.923 21.349 74.058 21.531 74.167 21.679V21.679L73.691 21.979C73.088 21.214 72.563 20.642 72.115 20.264 71.663 19.879 71.189 19.702 70.692 19.733 70.205 19.766 69.595 20.013 68.862 20.475V20.475L67.139 21.56C66.672 21.854 66.341 22.115 66.146 22.343 65.95 22.571 65.889 22.831 65.961 23.125 66.027 23.422 66.22 23.824 66.54 24.332V24.332L73.018 34.616C73.331 35.112 73.609 35.457 73.851 35.651 74.092 35.854 74.357 35.916 74.647 35.839 74.937 35.761 75.315 35.575 75.783 35.28V35.28L77.298 34.326C78.169 33.777 78.755 33.243 79.056 32.722 79.361 32.208 79.442 31.621 79.301 30.96 79.168 30.302 78.864 29.486 78.387 28.513V28.513L78.864 28.213C79.059 28.613 79.352 29.122 79.741 29.74V29.74C79.908 30.005 80.155 30.378 80.481 30.858 80.813 31.334 81.171 31.818 81.553 32.31V32.31C80.831 32.725 80.027 33.207 79.14 33.758 78.254 34.308 77.464 34.802 76.772 35.238V35.238C76.356 35.5 75.808 35.845 75.127 36.274 74.44 36.707 73.712 37.169 72.942 37.662 72.173 38.155 71.459 38.629 70.802 39.083V39.083L70.54 38.667C70.99 38.344 71.31 38.066 71.502 37.832 71.693 37.599 71.749 37.33 71.67 37.025 71.6 36.722 71.409 36.323 71.096 35.826V35.826L64.618 25.542C64.298 25.035 64.019 24.687 63.779 24.499 63.546 24.307 63.279 24.242 62.978 24.302 62.681 24.368 62.294 24.54 61.815 24.817V24.817L61.559 24.41C62.242 23.996 62.973 23.552 63.754 23.076 64.538 22.606 65.273 22.155 65.96 21.722 66.641 21.293 67.189 20.948 67.605 20.686V20.686C68.24 20.286 68.959 19.829 69.764 19.314 70.564 18.794 71.275 18.322 71.895 17.899ZM69.003 29.624L72.803 27.23C72.803 27.23 72.847 27.299 72.934 27.438 73.018 27.571 73.059 27.637 73.059 27.637V27.637L69.259 30.031C69.259 30.031 69.217 29.965 69.134 29.832 69.047 29.693 69.003 29.624 69.003 29.624ZM71.196 24.41L71.672 24.11C72.112 24.937 72.469 25.554 72.742 25.963 73.01 26.374 73.253 26.754 73.471 27.1V27.1C73.685 27.44 73.929 27.815 74.202 28.223 74.481 28.627 74.896 29.209 75.446 29.967V29.967L74.97 30.267C74.638 29.855 74.299 29.464 73.953 29.094 73.612 28.719 73.23 28.477 72.805 28.366 72.38 28.254 71.862 28.391 71.25 28.777V28.777L70.994 28.37C71.606 27.984 71.931 27.554 71.97 27.078 72.006 26.612 71.925 26.143 71.725 25.672 71.525 25.202 71.349 24.781 71.196 24.41ZM93.226 8.131V8.131C93.405 8.729 93.594 9.301 93.795 9.845 94.001 10.387 94.164 10.8 94.284 11.083V11.083C94.438 11.447 94.587 11.784 94.732 12.093 94.884 12.399 95.016 12.669 95.13 12.902V12.902L94.611 13.121C94.061 12.117 93.567 11.348 93.127 10.816 92.694 10.281 92.194 9.973 91.628 9.894 91.061 9.815 90.303 9.976 89.355 10.376V10.376L88.139 10.89 93.559 23.727C93.813 24.33 94.061 24.759 94.302 25.012 94.542 25.266 94.848 25.378 95.22 25.346 95.595 25.306 96.107 25.168 96.755 24.932V24.932L96.946 25.384C96.537 25.52 96.033 25.71 95.433 25.956 94.827 26.205 94.216 26.459 93.6 26.719V26.719C92.922 27.005 92.285 27.278 91.691 27.536 91.103 27.792 90.634 28.012 90.282 28.197V28.197L90.091 27.745C90.713 27.446 91.169 27.175 91.459 26.934 91.741 26.69 91.875 26.392 91.86 26.043 91.846 25.694 91.712 25.217 91.457 24.614V24.614L86.037 11.777 84.821 12.29C83.885 12.686 83.244 13.115 82.9 13.579 82.555 14.043 82.424 14.617 82.505 15.301 82.58 15.987 82.786 16.877 83.122 17.972V17.972L82.604 18.191C82.534 17.939 82.436 17.654 82.31 17.338 82.184 17.021 82.043 16.68 81.89 16.316V16.316C81.77 16.033 81.588 15.628 81.344 15.102 81.093 14.579 80.816 14.044 80.512 13.499V13.499C81.152 13.244 81.848 12.964 82.601 12.661 83.351 12.367 84.102 12.061 84.856 11.742 85.61 11.424 86.295 11.135 86.911 10.875V10.875C87.527 10.615 88.205 10.328 88.947 10.015 89.695 9.7 90.441 9.373 91.187 9.036 91.93 8.708 92.61 8.406 93.226 8.131ZM107.799 3.783V3.783C107.899 4.344 108.012 4.886 108.138 5.411 108.27 5.934 108.376 6.329 108.454 6.598V6.598C108.537 6.879 108.623 7.149 108.713 7.407 108.808 7.656 108.887 7.867 108.952 8.04V8.04L108.412 8.199C108.041 7.298 107.692 6.605 107.364 6.118 107.035 5.625 106.627 5.325 106.141 5.219 105.663 5.117 105.009 5.189 104.178 5.432V5.432L102.224 6.006C101.694 6.161 101.304 6.322 101.054 6.488 100.804 6.653 100.674 6.887 100.663 7.189 100.645 7.493 100.721 7.932 100.89 8.508V8.508L104.313 20.171C104.478 20.734 104.651 21.141 104.832 21.394 105.008 21.655 105.246 21.788 105.546 21.792 105.846 21.797 106.261 21.721 106.791 21.566V21.566L108.509 21.061C109.497 20.771 110.207 20.417 110.639 19.999 111.072 19.588 111.311 19.045 111.355 18.371 111.407 17.701 111.337 16.833 111.145 15.767V15.767L111.685 15.608C111.764 16.047 111.906 16.617 112.112 17.317V17.317C112.2 17.618 112.336 18.044 112.519 18.594 112.708 19.143 112.92 19.706 113.153 20.285V20.285C112.345 20.486 111.44 20.731 110.436 21.018 109.433 21.305 108.539 21.564 107.754 21.795V21.795C107.282 21.933 106.661 22.115 105.888 22.342 105.11 22.571 104.283 22.817 103.408 23.081 102.532 23.345 101.717 23.605 100.961 23.863V23.863L100.822 23.392C101.343 23.203 101.727 23.023 101.975 22.851 102.223 22.678 102.351 22.435 102.358 22.12 102.373 21.81 102.299 21.373 102.133 20.81V20.81L98.711 9.148C98.542 8.572 98.368 8.161 98.189 7.915 98.017 7.667 97.778 7.531 97.472 7.507 97.169 7.489 96.749 7.549 96.213 7.685V7.685L96.078 7.223C96.847 7.012 97.672 6.784 98.553 6.539 99.436 6.302 100.267 6.068 101.045 5.84 101.818 5.613 102.439 5.431 102.911 5.293V5.293C103.631 5.081 104.448 4.838 105.362 4.562 106.274 4.281 107.087 4.021 107.799 3.783ZM101.814 14.272L106.124 13.007C106.124 13.007 106.147 13.086 106.193 13.243 106.237 13.394 106.259 13.469 106.259 13.469V13.469L101.949 14.734C101.949 14.734 101.927 14.658 101.883 14.508 101.837 14.351 101.814 14.272 101.814 14.272ZM105.348 9.855L105.888 9.697C106.085 10.613 106.26 11.304 106.411 11.771 106.556 12.241 106.686 12.672 106.801 13.064V13.064C106.915 13.451 107.047 13.877 107.199 14.345 107.356 14.81 107.596 15.482 107.918 16.362V16.362L107.379 16.52C107.172 16.034 106.952 15.565 106.721 15.114 106.495 14.661 106.194 14.323 105.815 14.1 105.437 13.877 104.901 13.867 104.207 14.071V14.071L104.072 13.61C104.766 13.406 105.196 13.081 105.364 12.633 105.526 12.195 105.576 11.722 105.512 11.214 105.449 10.707 105.394 10.254 105.348 9.855ZM119.634 1.309V1.309C120.697 1.132 121.598 1.145 122.337 1.348 123.074 1.543 123.744 1.809 124.346 2.144V2.144C124.709 2.333 124.96 2.319 125.096 2.102 125.234 1.893 125.28 1.436 125.232 0.732V0.732L125.787 0.64C125.852 1.237 125.948 1.964 126.077 2.821 126.198 3.679 126.375 4.808 126.608 6.207V6.207L126.053 6.299C125.823 5.625 125.627 5.091 125.465 4.696 125.303 4.301 125.127 3.971 124.937 3.705 124.755 3.438 124.525 3.179 124.248 2.928V2.928C123.641 2.351 122.935 1.974 122.131 1.797 121.322 1.627 120.5 1.611 119.666 1.75V1.75C118.872 1.882 118.191 2.199 117.625 2.701 117.052 3.204 116.598 3.863 116.263 4.68 115.929 5.496 115.72 6.447 115.638 7.532 115.563 8.623 115.634 9.821 115.851 11.126V11.126C116.076 12.479 116.413 13.653 116.862 14.651 117.31 15.641 117.838 16.452 118.448 17.084 119.057 17.708 119.724 18.147 120.451 18.4 121.184 18.651 121.937 18.713 122.711 18.584V18.584C123.431 18.465 124.164 18.194 124.91 17.773 125.648 17.346 126.189 16.776 126.534 16.062V16.062C126.812 15.532 126.973 14.983 127.017 14.415 127.06 13.841 127.057 13.054 127.009 12.052V12.052L127.564 11.96C127.807 13.427 128.014 14.606 128.182 15.498 128.344 16.39 128.493 17.14 128.629 17.747V17.747L128.073 17.839C127.891 17.157 127.708 16.741 127.524 16.592 127.346 16.435 127.098 16.501 126.779 16.789V16.789C126.249 17.305 125.678 17.777 125.064 18.204 124.451 18.631 123.619 18.931 122.569 19.106V19.106C121.042 19.359 119.642 19.236 118.37 18.735 117.104 18.233 116.047 17.382 115.197 16.182 114.341 14.983 113.761 13.465 113.456 11.628V11.628C113.155 9.818 113.222 8.182 113.657 6.72 114.091 5.258 114.821 4.055 115.847 3.11 116.878 2.158 118.14 1.557 119.634 1.309ZM140.605 17.486V17.486L140.593 16.996C141.145 16.948 141.563 16.873 141.847 16.771 142.131 16.669 142.317 16.466 142.405 16.164 142.494 15.868 142.531 15.427 142.517 14.841V14.841L142.224 2.69C142.21 2.09 142.152 1.648 142.049 1.364 141.947 1.08 141.751 0.887 141.462 0.785 141.173 0.689 140.752 0.638 140.2 0.631V0.631L140.188 0.15C140.563 0.155 141.034 0.157 141.601 0.157 142.174 0.164 142.74 0.16 143.299 0.147V0.147C143.933 0.132 144.526 0.107 145.078 0.073 145.637 0.046 146.087 0.022 146.427 0V0L146.439 0.481C145.887 0.514 145.469 0.586 145.185 0.695 144.901 0.811 144.715 1.013 144.627 1.302 144.531 1.591 144.491 2.035 144.505 2.635V2.635L144.798 14.786C144.812 15.373 144.873 15.811 144.983 16.102 145.085 16.4 145.281 16.593 145.57 16.681 145.858 16.77 146.279 16.825 146.833 16.845V16.845L146.844 17.336C146.503 17.31 146.052 17.301 145.493 17.307 144.94 17.314 144.347 17.325 143.713 17.34V17.34C143.154 17.354 142.588 17.371 142.015 17.391 141.449 17.412 140.979 17.443 140.605 17.486ZM130.367 17.733V17.733L130.355 17.242C130.907 17.195 131.325 17.12 131.609 17.017 131.893 16.915 132.079 16.713 132.167 16.41 132.262 16.115 132.303 15.674 132.289 15.087V15.087L131.996 2.936C131.982 2.336 131.92 1.894 131.811 1.61 131.709 1.326 131.513 1.133 131.224 1.031 130.935 0.936 130.514 0.884 129.961 0.877V0.877L129.95 0.396C130.291 0.402 130.738 0.405 131.291 0.405 131.85 0.412 132.447 0.408 133.081 0.393V0.393C133.654 0.379 134.223 0.355 134.789 0.321 135.347 0.294 135.814 0.269 136.189 0.246V0.246L136.201 0.727C135.649 0.761 135.231 0.832 134.947 0.941 134.663 1.057 134.477 1.26 134.388 1.548 134.293 1.837 134.253 2.282 134.267 2.882V2.882L134.559 15.033C134.574 15.619 134.635 16.058 134.745 16.348 134.847 16.646 135.043 16.839 135.332 16.928 135.62 17.016 136.041 17.071 136.594 17.092V17.092L136.606 17.583C136.23 17.558 135.763 17.548 135.203 17.555 134.637 17.562 134.068 17.572 133.495 17.586V17.586C132.861 17.601 132.264 17.619 131.705 17.639 131.153 17.659 130.707 17.691 130.367 17.733ZM143.234 8.939L133.559 9.172 133.547 8.691 143.223 8.459ZM164.547 1.822V1.822C165.611 1.991 166.462 2.288 167.099 2.714 167.737 3.133 168.288 3.597 168.753 4.106V4.106C169.038 4.399 169.279 4.465 169.478 4.303 169.675 4.148 169.862 3.729 170.04 3.046V3.046L170.595 3.134C170.468 3.722 170.329 4.442 170.18 5.295 170.024 6.148 169.835 7.274 169.612 8.676V8.676L169.057 8.587C169.052 7.875 169.036 7.306 169.006 6.881 168.977 6.455 168.915 6.086 168.82 5.774 168.731 5.463 168.595 5.144 168.412 4.818V4.818C168.018 4.079 167.468 3.498 166.762 3.075 166.048 2.658 165.273 2.383 164.438 2.25V2.25C163.643 2.124 162.897 2.209 162.201 2.506 161.498 2.802 160.858 3.284 160.283 3.953 159.707 4.621 159.208 5.457 158.787 6.46 158.371 7.472 158.059 8.631 157.852 9.937V9.937C157.637 11.291 157.585 12.512 157.695 13.6 157.807 14.682 158.052 15.618 158.43 16.41 158.809 17.196 159.304 17.823 159.913 18.293 160.529 18.763 161.224 19.06 161.999 19.183V19.183C162.72 19.298 163.5 19.273 164.341 19.11 165.176 18.938 165.87 18.568 166.423 18V18C166.855 17.585 167.182 17.116 167.403 16.591 167.626 16.06 167.872 15.312 168.143 14.347V14.347L168.698 14.435C168.465 15.904 168.288 17.087 168.166 17.987 168.037 18.885 167.941 19.643 167.877 20.261V20.261L167.322 20.173C167.364 19.468 167.322 19.016 167.195 18.817 167.076 18.611 166.819 18.595 166.426 18.767V18.767C165.76 19.09 165.069 19.356 164.352 19.567 163.634 19.778 162.75 19.8 161.7 19.633V19.633C160.17 19.39 158.882 18.83 157.833 17.952 156.791 17.076 156.057 15.934 155.632 14.526 155.199 13.118 155.129 11.494 155.421 9.655V9.655C155.708 7.843 156.289 6.313 157.165 5.063 158.04 3.814 159.113 2.904 160.385 2.332 161.664 1.755 163.051 1.585 164.547 1.822ZM182.393 6.212V6.212C183.881 6.664 185.081 7.395 185.993 8.406 186.905 9.417 187.48 10.646 187.718 12.094 187.956 13.542 187.803 15.163 187.258 16.958V16.958C186.727 18.707 185.946 20.141 184.915 21.261 183.884 22.381 182.692 23.138 181.339 23.533 179.993 23.93 178.592 23.908 177.136 23.466V23.466C175.655 23.017 174.455 22.286 173.536 21.273 172.624 20.262 172.053 19.03 171.824 17.578 171.588 16.123 171.74 14.505 172.281 12.724V12.724C172.814 10.968 173.599 9.531 174.637 8.413 175.674 7.296 176.862 6.54 178.2 6.148 179.546 5.751 180.944 5.773 182.393 6.212ZM182.177 6.606V6.606C181.159 6.297 180.168 6.382 179.203 6.859 178.239 7.336 177.364 8.129 176.578 9.238 175.786 10.344 175.144 11.71 174.651 13.336V13.336C174.148 14.993 173.942 16.506 174.033 17.874 174.124 19.241 174.463 20.378 175.051 21.283 175.641 22.182 176.412 22.776 177.365 23.065V23.065C178.377 23.372 179.364 23.29 180.326 22.82 181.291 22.343 182.17 21.547 182.964 20.434 183.753 19.312 184.392 17.948 184.879 16.343V16.343C185.388 14.665 185.595 13.149 185.499 11.795 185.413 10.436 185.079 9.304 184.498 8.401 183.917 7.498 183.143 6.899 182.177 6.606ZM207.043 16.715V16.715L206.841 17.151C206.331 16.938 205.916 16.836 205.596 16.846 205.273 16.862 204.999 16.998 204.775 17.255 204.544 17.509 204.303 17.909 204.051 18.453V18.453L197.906 31.73C197.819 31.69 197.736 31.651 197.655 31.614 197.575 31.577 197.488 31.537 197.395 31.494V31.494L194.742 12.747 189.31 24.482C189.064 25.015 188.916 25.457 188.865 25.81 188.824 26.159 188.917 26.461 189.144 26.717 189.378 26.975 189.779 27.254 190.346 27.555V27.555L190.14 28C189.882 27.843 189.541 27.663 189.116 27.459 188.692 27.255 188.285 27.063 187.895 26.882V26.882C187.524 26.711 187.148 26.54 186.767 26.372 186.387 26.203 186.066 26.077 185.804 25.993V25.993L186.01 25.548C186.526 25.749 186.942 25.848 187.26 25.844 187.577 25.841 187.849 25.707 188.076 25.444 188.312 25.178 188.553 24.778 188.8 24.246V24.246L193.802 13.439C194.054 12.894 194.194 12.47 194.221 12.167 194.255 11.867 194.165 11.608 193.951 11.388 193.734 11.175 193.379 10.943 192.886 10.692V10.692L193.088 10.256C193.33 10.383 193.637 10.54 194.009 10.727 194.378 10.921 194.748 11.103 195.119 11.275V11.275C195.447 11.427 195.764 11.562 196.07 11.681 196.373 11.806 196.644 11.917 196.885 12.014V12.014L199.136 27.734 203.54 18.217C203.793 17.672 203.941 17.23 203.986 16.89 204.024 16.547 203.933 16.241 203.711 15.973 203.48 15.709 203.078 15.432 202.505 15.145V15.145L202.707 14.708C202.973 14.847 203.321 15.022 203.748 15.235 204.179 15.457 204.58 15.654 204.951 15.826V15.826C205.335 16.004 205.72 16.171 206.106 16.327 206.49 16.489 206.802 16.619 207.043 16.715ZM214.395 20.831V20.831C215.093 21.258 215.573 21.663 215.834 22.046 216.099 22.424 216.311 22.797 216.469 23.166V23.166C216.578 23.368 216.67 23.524 216.746 23.635 216.823 23.745 216.91 23.831 217.009 23.891V23.891C217.23 24.026 217.568 23.813 218.023 23.252V23.252L218.503 23.545C218.346 23.777 218.156 24.049 217.933 24.36 217.717 24.675 217.442 25.099 217.109 25.631 216.767 26.165 216.327 26.872 215.79 27.75V27.75L215.31 27.457C215.678 26.763 215.925 26.031 216.052 25.261 216.175 24.497 216.115 23.772 215.87 23.087 215.631 22.406 215.122 21.826 214.342 21.35V21.35C213.603 20.898 212.856 20.746 212.103 20.893 211.346 21.046 210.745 21.486 210.301 22.214V22.214C209.92 22.836 209.763 23.46 209.829 24.084 209.89 24.704 210.083 25.35 210.408 26.02 210.734 26.691 211.092 27.413 211.482 28.187V28.187C211.933 29.071 212.306 29.906 212.601 30.693 212.898 31.475 213.048 32.23 213.051 32.959 213.059 33.691 212.832 34.435 212.369 35.192V35.192C211.825 36.082 211.171 36.694 210.408 37.027 209.648 37.37 208.844 37.482 207.996 37.364 207.146 37.252 206.316 36.948 205.507 36.454V36.454C204.768 36.002 204.235 35.56 203.907 35.128 203.579 34.696 203.317 34.296 203.118 33.927V33.927C202.931 33.541 202.756 33.298 202.593 33.198V33.198C202.366 33.059 202.023 33.274 201.565 33.841V33.841L201.084 33.547C201.295 33.268 201.524 32.933 201.772 32.541 202.019 32.148 202.342 31.634 202.739 30.997 203.136 30.361 203.633 29.554 204.231 28.576V28.576L204.719 28.875C204.26 29.745 203.937 30.619 203.752 31.497 203.57 32.384 203.613 33.21 203.881 33.974 204.146 34.743 204.724 35.4 205.615 35.944V35.944C206.301 36.364 207.062 36.525 207.897 36.428 208.728 36.336 209.443 35.802 210.04 34.824V34.824C210.56 33.974 210.69 33.087 210.432 32.162 210.171 31.243 209.731 30.19 209.112 29.005V29.005C208.709 28.199 208.346 27.414 208.022 26.648 207.708 25.881 207.551 25.117 207.551 24.358 207.542 23.601 207.776 22.833 208.253 22.053V22.053C208.758 21.227 209.357 20.658 210.051 20.346 210.751 20.039 211.478 19.94 212.234 20.05 212.994 20.155 213.714 20.415 214.395 20.831ZM233.781 35.544V35.544L233.482 35.921C233.037 35.594 232.657 35.398 232.344 35.332 232.026 35.272 231.728 35.34 231.45 35.537 231.172 35.734 230.846 36.068 230.473 36.539V36.539L225.891 42.319C225.18 43.217 224.502 43.951 223.859 44.521 223.212 45.096 222.549 45.51 221.869 45.763V45.763C221.125 46.044 220.319 46.105 219.451 45.948 218.574 45.793 217.737 45.399 216.94 44.768V44.768C216.326 44.281 215.8 43.742 215.362 43.152 214.925 42.561 214.652 41.901 214.543 41.171V41.171C214.453 40.516 214.46 39.908 214.565 39.348 214.665 38.783 214.906 38.182 215.289 37.545 215.672 36.909 216.208 36.155 216.899 35.283V35.283L221.678 29.254C222.051 28.784 222.286 28.404 222.384 28.116 222.487 27.833 222.46 27.559 222.303 27.295 222.143 27.037 221.852 26.729 221.432 26.369V26.369L221.73 25.993C221.989 26.215 222.331 26.503 222.755 26.857 223.181 27.221 223.642 27.599 224.139 27.993V27.993C224.588 28.349 225.041 28.695 225.497 29.031 225.944 29.367 226.319 29.647 226.621 29.869V29.869L226.323 30.246C225.877 29.919 225.51 29.706 225.222 29.609 224.93 29.516 224.657 29.553 224.404 29.718 224.146 29.879 223.831 30.194 223.458 30.665V30.665L218.418 37.023C217.728 37.894 217.159 38.744 216.711 39.573 216.258 40.407 216.075 41.21 216.159 41.981 216.245 42.763 216.742 43.514 217.65 44.234V44.234C218.623 45.005 219.546 45.384 220.418 45.37 221.286 45.362 222.126 45.066 222.937 44.482 223.743 43.893 224.521 43.126 225.271 42.18V42.18L230.024 36.183C230.397 35.712 230.632 35.307 230.728 34.965 230.825 34.624 230.791 34.293 230.628 33.972 230.46 33.656 230.166 33.319 229.746 32.96V32.96L230.045 32.583C230.266 32.776 230.56 33.026 230.925 33.333 231.292 33.65 231.636 33.935 231.957 34.19V34.19C232.288 34.452 232.623 34.705 232.962 34.947 233.296 35.195 233.569 35.394 233.781 35.544ZM240.344 42.064V42.064L240.002 42.402C239.599 42.024 239.26 41.77 238.985 41.638 238.706 41.512 238.431 41.515 238.161 41.649 237.885 41.778 237.534 42.054 237.108 42.477V42.477L228.476 51.033C228.059 51.446 227.783 51.792 227.647 52.071 227.501 52.35 227.497 52.623 227.636 52.889 227.775 53.155 228.038 53.484 228.427 53.876V53.876L229.688 55.148C230.413 55.879 231.067 56.33 231.65 56.502 232.232 56.673 232.843 56.606 233.481 56.3 234.128 55.994 234.893 55.486 235.774 54.776V54.776L236.17 55.176C235.778 55.497 235.286 55.951 234.695 56.537V56.537C234.472 56.758 234.162 57.08 233.765 57.502 233.372 57.93 232.977 58.384 232.58 58.864V58.864C232.018 58.249 231.372 57.569 230.643 56.823 229.913 56.077 229.26 55.413 228.684 54.832V54.832C228.338 54.483 227.882 54.023 227.315 53.452 226.744 52.875 226.134 52.265 225.486 51.621 224.837 50.976 224.22 50.383 223.634 49.84V49.84L223.983 49.494C224.396 49.863 224.737 50.115 225.007 50.251 225.276 50.387 225.551 50.384 225.832 50.24 226.112 50.106 226.46 49.833 226.877 49.42V49.42L235.509 40.864C235.935 40.441 236.214 40.093 236.346 39.818 236.482 39.549 236.488 39.274 236.364 38.994 236.235 38.718 235.983 38.377 235.609 37.97V37.97L235.95 37.632C236.18 37.883 236.485 38.21 236.864 38.612 237.244 39.024 237.657 39.455 238.103 39.905V39.905C238.506 40.312 238.915 40.71 239.328 41.097 239.731 41.485 240.07 41.807 240.344 42.064ZM254.011 58.049V58.049C253.485 58.386 252.988 58.725 252.519 59.068 252.055 59.415 251.703 59.685 251.464 59.878V59.878C251.156 60.126 250.873 60.363 250.616 60.587 250.364 60.817 250.141 61.019 249.947 61.192V61.192L249.594 60.754C250.409 59.949 251.011 59.262 251.402 58.693 251.798 58.129 251.956 57.564 251.876 56.997 251.796 56.431 251.433 55.747 250.787 54.945V54.945L249.959 53.917 239.108 62.659C238.598 63.07 238.254 63.425 238.076 63.726 237.898 64.027 237.876 64.352 238.008 64.701 238.15 65.051 238.423 65.505 238.829 66.063V66.063L238.446 66.371C238.203 66.015 237.881 65.583 237.48 65.074 237.075 64.56 236.662 64.042 236.243 63.522V63.522C235.781 62.948 235.344 62.411 234.932 61.911 234.525 61.416 234.183 61.025 233.909 60.738V60.738L234.291 60.43C234.75 60.945 235.135 61.309 235.447 61.522 235.76 61.726 236.082 61.773 236.414 61.663 236.746 61.553 237.167 61.293 237.677 60.882V60.882L248.528 52.14 247.7 51.112C247.062 50.321 246.473 49.824 245.933 49.62 245.392 49.416 244.804 49.447 244.169 49.714 243.53 49.975 242.73 50.417 241.77 51.042V51.042L241.417 50.603C241.641 50.467 241.887 50.295 242.157 50.086 242.427 49.878 242.716 49.649 243.024 49.401V49.401C243.263 49.209 243.602 48.923 244.04 48.543 244.475 48.158 244.912 47.744 245.353 47.302V47.302C245.774 47.847 246.234 48.44 246.733 49.08 247.222 49.72 247.723 50.358 248.236 50.996 248.75 51.633 249.216 52.212 249.636 52.732V52.732C250.055 53.253 250.517 53.827 251.022 54.453 251.531 55.085 252.051 55.714 252.58 56.338 253.1 56.962 253.577 57.532 254.011 58.049ZM259.007 65.48V65.48L258.607 65.748C258.283 65.3 257.999 64.985 257.755 64.804 257.505 64.626 257.234 64.578 256.943 64.657 256.648 64.732 256.251 64.936 255.752 65.269V65.269L245.649 72.025C245.161 72.352 244.824 72.639 244.637 72.887 244.44 73.133 244.382 73.402 244.462 73.693 244.542 73.984 244.721 74.369 245 74.847V74.847L244.592 75.12C244.412 74.789 244.169 74.389 243.864 73.921 243.555 73.446 243.241 72.971 242.922 72.495V72.495C242.57 71.967 242.235 71.473 241.919 71.012 241.606 70.557 241.34 70.197 241.123 69.932V69.932L241.531 69.659C241.866 70.099 242.153 70.412 242.392 70.597 242.631 70.782 242.901 70.831 243.204 70.744 243.504 70.666 243.898 70.464 244.386 70.137V70.137L254.489 63.381C254.988 63.048 255.329 62.759 255.51 62.514 255.695 62.276 255.753 62.007 255.685 61.708 255.61 61.413 255.428 61.03 255.138 60.56V60.56L255.538 60.292C255.716 60.584 255.953 60.962 256.249 61.429 256.543 61.906 256.866 62.407 257.219 62.935V62.935C257.537 63.411 257.862 63.879 258.194 64.338 258.516 64.795 258.787 65.176 259.007 65.48ZM267.807 81.8V81.8L267.382 82.026C267.104 81.548 266.835 81.217 266.574 81.031 266.307 80.849 266.006 80.793 265.672 80.862 265.335 80.926 264.902 81.099 264.372 81.381V81.381L251.46 88.261C251.416 88.177 251.372 88.096 251.331 88.017 251.289 87.939 251.244 87.855 251.196 87.765V87.765L260.392 71.214 248.979 77.295C248.462 77.571 248.076 77.834 247.823 78.085 247.58 78.338 247.472 78.636 247.499 78.977 247.529 79.324 247.68 79.788 247.951 80.37V80.37L247.518 80.601C247.407 80.32 247.244 79.97 247.028 79.552 246.813 79.133 246.604 78.734 246.402 78.355V78.355C246.21 77.994 246.013 77.631 245.811 77.267 245.61 76.903 245.43 76.609 245.271 76.384V76.384L245.705 76.153C245.994 76.625 246.267 76.955 246.522 77.144 246.777 77.332 247.075 77.39 247.414 77.317 247.764 77.247 248.197 77.074 248.715 76.798V76.798L259.224 71.198C259.754 70.916 260.121 70.663 260.326 70.438 260.534 70.219 260.619 69.957 260.58 69.653 260.536 69.352 260.393 68.953 260.151 68.456V68.456L260.576 68.23C260.692 68.477 260.842 68.787 261.025 69.161 261.203 69.538 261.388 69.907 261.58 70.268V70.268C261.75 70.587 261.921 70.886 262.093 71.165 262.259 71.448 262.409 71.7 262.543 71.922V71.922L254.853 85.816 264.107 80.885C264.637 80.602 265.022 80.339 265.263 80.095 265.501 79.845 265.612 79.546 265.597 79.198 265.573 78.848 265.419 78.385 265.135 77.81V77.81L265.56 77.584C265.689 77.855 265.86 78.205 266.072 78.632 266.282 79.069 266.483 79.468 266.675 79.83V79.83C266.874 80.203 267.08 80.568 267.294 80.926 267.502 81.286 267.673 81.578 267.807 81.8ZM272.182 92.3V92.3C272.555 93.297 272.706 94.158 272.635 94.883 272.57 95.607 272.436 96.309 272.232 96.989V96.989C272.155 97.251 272.136 97.433 272.174 97.535V97.535C272.284 97.829 272.822 97.846 273.788 97.587V97.587L273.985 98.114C273.411 98.292 272.716 98.527 271.9 98.818 271.084 99.108 270.011 99.502 268.682 99.999V99.999L268.485 99.472C269.084 99.124 269.654 98.762 270.197 98.384 270.734 98.008 271.151 97.565 271.447 97.053V97.053C271.849 96.393 272.072 95.647 272.118 94.815 272.161 93.976 272.04 93.176 271.756 92.416V92.416C271.469 91.649 271.021 91.027 270.413 90.548 269.804 90.069 269.065 89.738 268.195 89.553 267.327 89.375 266.357 89.352 265.285 89.484 264.206 89.618 263.047 89.916 261.808 90.38V90.38C259.055 91.41 257.205 92.607 256.26 93.973 255.314 95.339 255.19 96.955 255.888 98.82V98.82C256.093 99.369 256.354 99.814 256.671 100.155 256.983 100.504 257.259 100.765 257.499 100.937V100.937C257.804 101.151 258.058 101.264 258.259 101.276 258.466 101.285 258.714 101.237 259.001 101.129V101.129L261.205 100.305C261.831 100.071 262.275 99.836 262.536 99.6 262.798 99.363 262.92 99.059 262.905 98.686 262.891 98.32 262.771 97.812 262.542 97.162V97.162L263.002 96.99C263.092 97.269 263.2 97.596 263.326 97.972 263.455 98.338 263.594 98.727 263.74 99.138 263.884 99.543 264.02 99.915 264.146 100.254V100.254C264.335 100.758 264.511 101.209 264.674 101.607 264.846 102.009 264.99 102.345 265.106 102.615V102.615L264.646 102.787C264.425 102.294 264.183 102.017 263.92 101.955 263.652 101.902 263.091 102.036 262.234 102.356V102.356L257.692 104.054 257.52 103.595C257.777 103.484 258.04 103.32 258.309 103.103 258.571 102.889 258.665 102.682 258.591 102.484V102.484C258.557 102.395 258.501 102.314 258.423 102.241 258.343 102.162 258.176 102.038 257.924 101.871V101.871C257.352 101.509 256.849 101.089 256.415 100.611 255.979 100.126 255.621 99.51 255.342 98.762V98.762C254.455 96.392 254.489 94.271 255.442 92.4 256.391 90.538 258.143 89.129 260.699 88.173V88.173C262.488 87.504 264.154 87.249 265.699 87.406 267.235 87.56 268.568 88.059 269.699 88.903 270.824 89.75 271.652 90.882 272.182 92.3Z" fill="#233565" data-fill-palette-color="primary"></path><path d="M4.319 140.53c0-3.732 3.026-6.758 6.758-6.758 3.732 0 6.758 3.026 6.758 6.758 0 3.732-3.026 6.758-6.758 6.758-3.732 0-6.758-3.026-6.758-6.758zM261.885 140.53c0-3.732 3.026-6.758 6.758-6.758 3.732 0 6.758 3.026 6.758 6.758 0 3.732-3.026 6.758-6.758 6.758-3.732 0-6.758-3.026-6.758-6.758z" fill="#233565" data-fill-palette-color="primary"></path></svg></g></svg></g></svg></g><g></g></svg></g><defs></defs></svg><rect width="279.72" height="279.72" fill="none" stroke="none" visibility="hidden"></rect></g></svg></g></svg>