<?xml version="1.0" encoding="iso-8859-1"?>
<!-- Uploaded to: SVG Repo, www.svgrepo.com, Generator: SVG Repo Mixer Tools -->
<svg height="800px" width="800px" version="1.1" id="Layer_1" xmlns="http://www.w3.org/2000/svg" xmlns:xlink="http://www.w3.org/1999/xlink" 
	 viewBox="0 0 502.1 502.1" xml:space="preserve">
<ellipse style="opacity:0.5;fill:#B8CBCD;enable-background:new    ;" cx="261.5" cy="427.8" rx="190.7" ry="47.3"/>
<path style="fill:#B9E3ED;" d="M490,260.9c0-33.3-27-60.2-60.2-60.2c-2.7,0-5.3,0.2-7.8,0.6c0.2-2.1,0.3-4.1,0.3-6.2
	c0-42.6-34.6-77.2-77.2-77.2c-10.1,0-19.7,2-28.5,5.5c-13.3-48.7-57.8-84.6-110.8-84.6c-61.6,0-111.9,48.6-114.7,109.5
	c-44.4,3.8-79.2,40.9-79.2,86.3c0,45.3,34.8,82.4,79.1,86.2v0.3h342.6v-0.2C465,319,490,292.9,490,260.9z"/>
<path style="fill:#324654;" d="M433.5,324.1H90.9c-0.6,0-1.2-0.2-1.6-0.5c-21.7-2.2-41.8-12.3-56.7-28.4
	c-15.3-16.6-23.7-38.1-23.7-60.7s8.4-44.2,23.8-60.7C47.3,158,67,148,88.3,145.6c4-61.8,55.2-109.8,117.4-109.8
	c51.9,0,97.8,34.2,112.8,83.6c8.6-3,17.5-4.6,26.5-4.6c44.2,0,80.2,36,80.2,80.2c0,1,0,1.9-0.1,2.8c1.6-0.1,3.1-0.2,4.6-0.2
	c34.9,0,63.2,28.4,63.2,63.2c0,32.9-25.5,60.4-58.2,63C434.4,324,433.9,324.1,433.5,324.1z M92.3,318.1h340.1
	c0.3-0.1,0.6-0.2,0.9-0.2c30.1-1.9,53.7-26.9,53.7-57c0-31.6-25.7-57.2-57.2-57.2c-2.2,0-4.6,0.2-7.5,0.5c-0.9,0.1-1.8-0.2-2.5-0.8
	s-1-1.5-0.9-2.4c0.2-2,0.3-4,0.3-6c0-40.9-33.3-74.2-74.2-74.2c-9.4,0-18.6,1.8-27.4,5.3c-0.8,0.3-1.7,0.3-2.5-0.1
	c-0.8-0.4-1.3-1.1-1.6-1.9c-13.2-48.5-57.6-82.4-107.9-82.4c-59.9,0-109,46.8-111.7,106.6c-0.1,1.5-1.2,2.7-2.7,2.9
	c-42.9,3.6-76.4,40.2-76.4,83.3c0,43,33.5,79.6,76.3,83.3C91.6,317.8,92,317.9,92.3,318.1z"/>
<path style="fill:#FFFFFF;" d="M40.7,236.4c8.2-39.2,36.2-63.2,77-66.6c2.6-56,48.8-100.7,105.4-100.7c26.1,0,49.9,9.5,68.3,25.2
	C272.8,59.1,236,35,193.4,35c-59.5,0-108,46.9-110.7,105.7c-42.8,3.6-76.4,39.5-76.4,83.2c0,38.3,14.5,70.6,49.7,80.4
	C36.6,282.5,36.3,257.5,40.7,236.4z"/>
<path style="opacity:0.2;fill:#324654;enable-background:new    ;" d="M471.5,211.9c2,6.1,3.2,12.5,3.2,19.3c0,32-25,58.1-56.5,60
	v0.2H75.7v-0.3c-19.3,0-35.4,3.7-48.7-7.8c12.6,27.9,37.2,36.9,69.1,39.7h4h56h52h76h52h64h40h4c31.5-2,53.3-29.7,53.3-61.7
	C497.3,240.9,487.1,222.8,471.5,211.9z"/>
<polygon style="fill:#FFFFFF;" points="364,259 301.7,196.9 240,259 280,259 280,383 324,383 324,259 "/>
<g>
	<path style="fill:#324654;" d="M324,392h-44c-5,0-9-4-9-9V268h-31c-3.6,0-6.9-2.2-8.3-5.5c-1.4-3.4-0.6-7.2,1.9-9.8l61.7-62.1
		c1.7-1.7,4-2.7,6.4-2.7l0,0c2.4,0,4.7,0.9,6.4,2.6l62.3,62.1c2.6,2.6,3.4,6.4,2,9.8c-1.4,3.4-4.7,5.6-8.3,5.6h-31v115
		C333,388,329,392,324,392z M289,374h26V259c0-5,4-9,9-9h18.2l-40.5-40.4L261.6,250H280c5,0,9,4,9,9L289,374L289,374z"/>
	<path style="fill:#324654;" d="M436,335H316v-24h119.6c23.8-1.7,42.4-23.6,42.4-50.1c0-26.6-21.6-48.2-48.2-48.2
		c-1.8,0-3.8,0.1-6.3,0.5c-3.6,0.5-7.2-0.7-9.8-3.2c-2.6-2.5-4-6-3.7-9.6c0.1-1.8,0.3-3.6,0.3-5.3c0-35.9-29.2-65.2-65.2-65.2
		c-8.2,0-16.3,1.6-24.1,4.7c-3.2,1.3-6.7,1.1-9.8-0.4c-3.1-1.5-5.3-4.3-6.2-7.6c-12.2-44.6-52.9-75.7-99.2-75.7
		c-55.1,0-100.2,43.1-102.7,98.1c-0.3,6-5,10.9-11,11.4c-38.2,3.2-68.2,35.9-68.2,74.3c0,40.2,27.8,73,64.7,76.5h199.5v24h-200
		c-0.3,0-0.7,0-1,0c-24.4-2.1-46.7-13.8-62.8-32.9C8.6,283.8,0,259.8,0,234.8c0-24.9,9.3-48.6,26.1-66.9c14.4-15.6,33.3-26,53.9-30
		C87.8,74.9,141.3,27,205.8,27c52.8,0,99.9,33,118.5,81.5c6.8-1.7,13.8-2.5,20.8-2.5c47.1,0,85.8,36.7,89,82.9
		c37.9,2.2,68,33.7,68,72.1c0,18.6-6.4,36.4-18,50.1c-12.2,14.4-28.9,22.9-47.2,24C436.5,335,436.2,335,436,335z"/>
</g>
<polygon style="fill:#FFFFFF;" points="112,359 173.7,419 236,359 196,359 196,235 152,235 152,359 "/>
<path style="fill:#324654;" d="M173.7,428c-2.3,0-4.5-0.8-6.3-2.5l-61.7-60c-2.6-2.6-3.4-6.4-2.1-9.8s4.7-5.6,8.3-5.6h31V235
	c0-5,4-9,9-9h44c5,0,9,4,9,9v115h31c3.7,0,7,2.2,8.3,5.6c1.4,3.4,0.5,7.3-2.1,9.8l-62.3,60C178.2,427.2,176,428,173.7,428z
	 M134.2,368l39.6,38.5l39.9-38.5H196c-5,0-9-4-9-9V244h-26v115c0,5-4,9-9,9H134.2z"/>
</svg>